<?xml version="1.0" encoding="UTF-8"?>
<svg id="Layer_2" data-name="Layer 2" xmlns="http://www.w3.org/2000/svg" xmlns:xlink="http://www.w3.org/1999/xlink" viewBox="0 0 750 500">
  <defs>
    <style>
      .cls-1 {
        fill: #f8f8f8;
      }

      .cls-1, .cls-2, .cls-3, .cls-4, .cls-5, .cls-6, .cls-7 {
        stroke-width: 0px;
      }

      .cls-2 {
        fill: #4bbee3;
      }

      .cls-8 {
        stroke: #009ade;
      }

      .cls-8, .cls-3, .cls-9, .cls-10, .cls-11 {
        fill: none;
      }

      .cls-8, .cls-9, .cls-10, .cls-11 {
        stroke-linecap: round;
        stroke-linejoin: round;
        stroke-width: 2px;
      }

      .cls-12 {
        clip-path: url(#clippath);
      }

      .cls-9 {
        stroke: #005085;
      }

      .cls-10 {
        stroke: #007cb2;
      }

      .cls-4 {
        fill: #009ade;
      }

      .cls-5 {
        fill: #007cb2;
      }

      .cls-11 {
        stroke: #00132a;
      }

      .cls-6 {
        fill: #005085;
      }

      .cls-7 {
        fill: #00132a;
      }
    </style>
    <clipPath id="clippath">
      <rect class="cls-3" width="750" height="500"/>
    </clipPath>
  </defs>
  <g id="OBJECTS">
    <g class="cls-12">
      <g>
        <path class="cls-2" d="M781.1,561.75H-16.19v-218.45c19.54-26.6,59.73-35.32,88.54-19.21,23.77,13.3,41.16,41.16,68.37,42.14,21.3.76,42.97-16,62.36-7.17,10.67,4.86,16.84,16.19,26.42,22.95,15.09,10.63,36.36,7.99,52.46-1.03,19.05-10.68,37-30.09,58.35-25.49,17.21,3.71,29.33,22.61,46.94,22.64,17.39.03,29.76-18.47,46.94-21.18,21.72-3.41,40.58,19.35,62.5,17.62,21.59-1.7,34.55-25.7,54.96-32.97,18.04-6.43,37.61,1.37,56.04,6.57,18.43,5.2,41.49,6.42,53.41-8.57,7.31-9.19,22.32-5.59,32.74-.17,5.35,2.78,10.29,6.49,16.07,8.23,11.35,3.41,23.32-1.35,34.68-4.75,11.36-3.4,25.14-4.93,33.75,3.23l2.76,215.6Z"/>
        <path class="cls-4" d="M542.71,371.12c-8.94,2.91-16.74,8.46-25.13,12.68-8.4,4.22-18.17,7.16-27.14,4.36-3.33-1.04-6.47-2.85-9.95-3.15-9-.79-15.48,8.32-19.13,16.59-3.65,8.26-7.63,17.93-16.29,20.5-4.59,1.36-9.61.33-14.26,1.48-8.75,2.18-13.68,11.1-19.7,17.82-10.29,11.49-29.56,17.05-41.07,6.78-5.43-4.85-8.21-12.34-14.23-16.42-11.44-7.77-27.4.6-40.67-3.3-15.88-4.67-21.6-24.12-34.1-34.97-12.66-10.99-31.73-12.01-47.54-6.45-7.29,2.56-14.13,6.36-21.59,8.39s-16.02,2.02-22.25-2.56c-5.27-3.88-8-10.34-12.72-14.88-7.9-7.6-20.39-8.64-30.86-5.43s-19.43,9.99-28.14,16.64v117.8l477.24,4.39v-128.9c-14.69-11.47-34.76-17.15-52.48-11.37Z"/>
        <path class="cls-5" d="M197.6,432.34c4.84,3.05,10.97,3.4,16.61,2.41,14.09-2.48,28.31-12.56,41.41-6.81,11.95,5.24,15.09,20.42,16.73,33.37.44,3.49.95,7.14,2.97,10.02,4.46,6.36,13.93,6.18,21.44,4.19,7.51-2,15.49-5.12,22.77-2.4,5.17,1.93,9.74,6.74,15.19,5.81,1.95-.33,3.72-1.4,5.68-1.66,5.51-.73,9.65,4.92,11.61,10.12,1.96,5.2,3.56,11.27,8.46,13.89l-377.44,15.28v-204.53c18.24-11.37,39.82-17.32,61.31-16.91,13.23.25,28.53,4.52,33.36,16.84,2.43,6.2,1.61,13.12,1.91,19.77.3,6.65,2.34,14.06,8.19,17.24,4.88,2.66,10.83,1.55,16.39,1.61,5.56.06,12.17,2.41,13.17,7.87.5,2.75-.61,5.55-.42,8.34.49,7.28,9.43,11.07,16.67,10.16,8.07-1.02,15.42-2.11,21.46,3.34,6.05,5.45,9.14,13.42,11.25,21.28,1.56,5.82,3.24,12.49,8.58,15.29,4.45,2.34,10.21,1.17,14.48,3.83,4.52,2.82,7.52,6.4,8.26,11.68Z"/>
        <g>
          <path class="cls-6" d="M152.49,418.13c.28-2.47-6.86-5.3-15.95-6.32-9.09-1.02-16.68.15-16.96,2.62-.04.33.07.66.28,1,.66,1.84,2.81,5.83,9.5,8.56,1.53.63,2.62,2.01,2.86,3.65l.81,5.49,1.09.12,1.09.12,2.01-5.17c.6-1.54,1.97-2.65,3.6-2.92,7.13-1.18,10.11-4.59,11.17-6.23.28-.28.46-.58.49-.91Z"/>
          <path class="cls-9" d="M120.62,415.77c-2.04-3.29-1.97-7.77.17-10.99,1.83-2.75,5.01-4.62,6.1-7.74.75-2.13.38-4.47,0-6.69"/>
          <path class="cls-9" d="M151.13,419.2c2.72-2.75,3.65-7.13,2.28-10.75-1.18-3.09-3.85-5.62-4.22-8.9-.25-2.24.62-4.44,1.49-6.53"/>
          <path class="cls-9" d="M124.3,414.18c-.52-1.15-1-2.32-1.21-3.56-.2-1.24-.1-2.57.5-3.67.87-1.6,2.62-2.48,3.92-3.75,1.34-1.3,2.23-3.06,2.48-4.92"/>
          <path class="cls-9" d="M129.64,414.37c-.75-1.7-1.51-3.62-.89-5.37.55-1.54,2.02-2.52,3.15-3.71.81-.85,1.46-1.85,1.92-2.93,1.24-2.92,1-6.22.74-9.37"/>
          <path class="cls-9" d="M147.74,416.82c.76-1,1.5-2.04,1.97-3.21.47-1.17.67-2.48.33-3.69-.5-1.75-2-3-2.99-4.53-1.02-1.57-1.49-3.48-1.32-5.34"/>
          <path class="cls-9" d="M142.49,415.82c1.11-1.5,2.28-3.19,2.06-5.04-.19-1.63-1.41-2.91-2.25-4.32-.6-1.01-1.01-2.13-1.22-3.28-.56-3.12.41-6.28,1.36-9.3"/>
          <path class="cls-9" d="M137.63,397c.21,2.19.4,4.44-.27,6.53-.42,1.31-1.17,2.49-1.67,3.77-.86,2.19-.97,4.66-.32,6.92"/>
        </g>
        <g>
          <path class="cls-6" d="M225.56,491.85c-10.53-9.9-12.02-23.84-4.76-36.15,4.1-7.46,9.59-13.56,13.44-21.04,5.6-10.91,5.51-23.71.44-35.13,8.07,10.07,9.44,25.41,3.83,37.2-3.57,7.8-9.29,14.2-13.61,21.34-7.29,11.21-6.53,22.66.66,33.79h0Z"/>
          <path class="cls-6" d="M227.01,491.42c-9.57-5.42-16.52-16.69-15.99-28.08.18-7.45,4.21-14.37,6.73-21.01,3.63-9.77,3.54-20.5-1.26-30.16,5.11,5.4,7.51,13.09,7.52,20.5.21,7.42-2.98,14.76-5.73,21.33-6.01,13.06-1.04,27.39,8.73,37.42h0Z"/>
          <path class="cls-6" d="M224.71,490.83c-8.91-10.23-7.43-20.17,1.16-30,2.38-2.75,4.95-5.16,7.29-7.62,9.49-9.79,17.35-21.4,17.58-35.57,4.02,14.32-4.19,29.09-13.98,39.04-7.06,7.35-15.99,13.67-15.09,24.35.33,3.26,1.77,6.5,3.03,9.8h0Z"/>
          <path class="cls-6" d="M224.23,490.32c-10.34-4.38-17.52-15.26-18.67-26.41-.62-5.56-.36-10.72-2.11-15.22-1.72-4.54-5.16-8.6-9.86-11.36,5.45.78,10.59,4.5,13.42,9.69,2.8,5.02,2.91,10.95,3.52,16.32,1.11,10.36,6.18,19.58,13.7,26.98h0Z"/>
          <path class="cls-6" d="M223.85,488.77c-3.99-4.59-2.77-11.66,0-16.58,4.61-8.26,13.4-13.77,22.6-15.2-2.88,2.31-5.7,4.4-8.32,6.64-7.7,6.35-14.3,14.73-14.28,25.13h0Z"/>
        </g>
        <path class="cls-5" d="M724.02,314.9c-4.95,5.21-6.78,13.26-12.86,17.08-6.65,4.18-15.52,1.43-22.1-2.86-6.58-4.29-12.38-10.1-19.87-12.49-11.39-3.63-25.04,2.67-29.67,13.69-1.92,4.58-2.46,9.8-5.32,13.86-5.06,7.18-15.12,8.09-23.87,8.91-11.04,1.04-22.26,3.09-31.87,8.62-9.61,5.53-17.46,15.09-18.52,26.13-.66,6.83,1.26,13.62,1.72,20.47.47,6.84-.97,14.55-6.52,18.59-3.97,2.89-9.24,3.28-14.14,2.84-11.05-1-21.57-5.66-32.65-6.25-18.51-.98-37.02,10.78-43.99,27.95-4.3,10.59-6.06,24.55-16.79,28.52-5.35,1.98-11.27.58-16.97.74-12.63.35-24.58,9.29-28.47,21.32l357.36,9.97v-201.34c-12.19-2.74-26.87-4.8-35.48,4.25Z"/>
        <g>
          <path class="cls-6" d="M462.79,478.52c-.17-2.48-7.7-3.98-16.83-3.36-9.12.62-16.38,3.14-16.21,5.62.02.33.18.64.45.93.98,1.69,3.81,5.23,10.88,6.72,1.62.34,2.94,1.51,3.47,3.07l1.78,5.25,1.1-.07,1.1-.08,1.05-5.45c.31-1.62,1.47-2.96,3.02-3.52,6.8-2.44,9.13-6.33,9.87-8.14.23-.33.34-.66.32-.98Z"/>
          <path class="cls-9" d="M431.01,481.91c-2.6-2.87-3.34-7.29-1.8-10.84,1.31-3.04,4.1-5.44,4.61-8.71.35-2.23-.43-4.46-1.2-6.59"/>
          <path class="cls-9" d="M461.65,479.82c2.19-3.19,2.31-7.67.31-10.99-1.71-2.83-4.8-4.84-5.75-8-.65-2.16-.18-4.48.29-6.69"/>
          <path class="cls-9" d="M434.34,479.69c-.72-1.03-1.4-2.1-1.83-3.29s-.56-2.51-.16-3.7c.57-1.73,2.13-2.91,3.19-4.4,1.08-1.52,1.64-3.41,1.56-5.28"/>
          <path class="cls-9" d="M439.63,478.92c-1.04-1.54-2.14-3.29-1.84-5.13.27-1.62,1.54-2.84,2.43-4.21.64-.98,1.11-2.08,1.36-3.23.69-3.09-.13-6.3-.95-9.35"/>
          <path class="cls-9" d="M457.88,478.08c.57-1.12,1.11-2.28,1.36-3.51.26-1.23.21-2.56-.34-3.69-.8-1.64-2.51-2.6-3.76-3.92-1.28-1.36-2.09-3.16-2.26-5.02"/>
          <path class="cls-9" d="M452.53,478.04c.83-1.67,1.67-3.55,1.12-5.33-.48-1.56-1.91-2.61-2.98-3.84-.77-.89-1.38-1.91-1.79-3.01-1.11-2.97-.73-6.25-.33-9.4"/>
          <path class="cls-9" d="M444.38,460.4c.59,2.11,1.19,4.3.91,6.48-.18,1.36-.7,2.66-.97,4.01-.45,2.31-.12,4.76.93,6.86"/>
        </g>
        <path class="cls-7" d="M768.8,508.17l-6.41-154.75c-7.79-.23-15.72-.44-23.24,1.6-7.52,2.04-14.73,6.69-17.95,13.79-5.02,11.06-.22,26.74-12.19,33.05-1.49.79-3.12,1.3-4.78,1.64-10.84,2.19-21.74-.91-32.23-3.97-9.65-2.82-19.63-5.68-29.61-4.46-9.98,1.22-20.04,7.63-22.3,17.43-1.5,6.51.59,13.43-1.87,19.89-.76,2-2.06,3.79-3.8,5.05-5.98,4.34-10.37-1.16-15.66-1.38-6.57-.27-10.6,7.33-11.19,13.88-.59,6.55.43,13.67-3.06,19.25-4.4,7.04-14.33,8.49-22.34,6.31-8.01-2.18-14.96-7.09-22.6-10.34-7.63-3.25-17-4.63-23.84.07-4.83,3.32-7.43,8.99-11.42,13.28-7.67,8.25-20.96,10.63-31.01,5.53-2.19-1.11-4.68-2.57-6.93-1.59-1.41.61-2.26,2.03-3.18,3.26-5.22,7-15.5,9.67-23.47,6.08-4.85-2.18-9.53-6.47-14.67-5.13-3,.78-5.24,3.38-8.21,4.29-6.95,2.13-13.6-5.66-20.82-4.82-3.14.36-5.83,2.31-8.7,3.62-.02,0-.03.01-.05.02-2.6,1.19-5.65.94-8.11-.51-27.32-16.15-40.7-3.23-45.59-2.97-5.72.31-11.13,2.56-16.5,4.56-2.13.79-4.37,1.55-6.62,1.22-4.64-.7-7.33-5.63-11.44-7.91-10.34-5.72-24.44,7.12-34.33.65-2.35-1.54-3.96-3.95-5.85-6.02-4.67-5.12-11.87-8.39-18.61-6.79-4.77,1.13-8.66,4.45-12.94,6.82-4.28,2.37-9.87,3.74-13.9.96-3.49-2.41-4.69-7.18-8.06-9.75-7.49-5.71-19.19,2.93-27.42-1.65-6.41-3.57-6.56-12.46-8.74-19.46-4.85-15.56-25.03-24.45-39.62-16.44-2.3,1.26-4.86,2.07-7.49,1.93-8.15-.44-7.13-8.37-10.99-12.59-6.35-6.94-19.21,1.01-26.96-4.32-5.1-3.5-5.3-10.91-4.25-17,1.05-6.09,2.76-12.72-.16-18.17-3.35-6.26-11.35-8.2-18.43-8.74-7.09-.54-14.79-.53-20.4-4.89-6.4-4.97-7.91-13.95-12.59-20.57-7.49-10.59-23.96-13.38-34.52-5.85l.21,165.16h374.36c.16.26.35.52.57.76h399.88Z"/>
        <path class="cls-7" d="M48.15,376.53c.33-2.84.66-5.71,1.64-8.39.97-2.69,2.66-5.21,5.14-6.64,1.92-1.11,4.15-1.48,6.28-2.08,6.88-1.93,13-6.44,16.9-12.43,1.38-2.12,2.5-4.48,2.71-7,.21-2.52-.61-5.22-2.57-6.83-2.01-1.65-4.92-1.9-7.42-1.18-3.91,1.12-7.08,4.51-7.94,8.49-.59,2.74-.14,5.62-.67,8.38-.57,3.02-2.35,5.79-4.86,7.57-.85.6-1.82,1.11-2.87,1.13-1.04.02-2.15-.58-2.45-1.58-.25-.82.07-1.71.47-2.47,1.46-2.79,3.92-4.96,5.38-7.75,1-1.91,1.49-4.08,1.42-6.24-.06-1.8-.66-3.77-2.23-4.64-1.73-.96-3.95-.18-5.51,1.04-3.09,2.41-4.73,6.54-4.13,10.41.41,2.67,1.79,5.38.95,7.95-.16.47-.39.93-.75,1.26-1.02.94-2.77.63-3.74-.37-.97-.99-1.3-2.45-1.38-3.83-.26-4.43,1.55-8.68,3.04-12.86.89-2.51,1.68-5.07,2.18-7.69.37-1.93.58-3.91.24-5.85-.34-1.93-1.28-3.82-2.86-4.98-2.91-2.14-7.32-1.19-9.85,1.4-2.53,2.59-3.47,6.36-3.59,9.98-.11,3.19.34,6.39,1.32,9.42,1.26,3.9,3.37,7.46,5.36,11.04s3.9,7.29,4.69,11.31c.8,4.02.37,8.45-2.01,11.78.79.65,2.09.65,3.07.91,1.53.4,2.5.35,4.03.75Z"/>
        <path class="cls-7" d="M713.03,379.96c-.03-1.77-.28-3.66-1.43-5.01-1.15-1.35-3.44-1.84-4.69-.58-.46.46-.72,1.08-.91,1.7-.54,1.69-.67,3.51-.39,5.26.34,2.1,1.26,4.13,1.13,6.26-.1,1.7-1.24,3.55-2.94,3.58-1.3.02-2.41-1.07-2.81-2.3-.4-1.23-.24-2.58,0-3.85.39-2.18.97-4.33,1.55-6.47,1.53-5.65,3.07-11.35,5.62-16.62.95-1.97,2.06-3.91,2.54-6.04.4-1.78.31-3.78-.78-5.24-1.42-1.91-4.23-2.37-6.47-1.57-2.24.8-3.97,2.62-5.3,4.59-3.2,4.7-4.58,10.5-4.42,16.19.16,5.68,1.79,11.26,4.19,16.41.37.8.78,1.66.63,2.54-.15.87-1.15,1.64-1.92,1.2-.26-.15-.45-.41-.61-.67-1.59-2.6-1.32-5.87-1.81-8.88-.25-1.56-.72-3.08-1.38-4.51-.55-1.19-1.26-2.34-2.28-3.16-1.02-.82-2.39-1.28-3.67-.98-1.77.43-2.92,2.18-3.42,3.93-.8,2.77-.41,5.87,1.06,8.36,2.81,4.75,8.84,6.7,12.07,11.17.48.67.86,1.68.24,2.22-.38.33-.95.28-1.43.13-1.96-.65-3.02-2.68-4.25-4.34-1.11-1.5-2.5-2.79-4.07-3.8-1.48-.95-3.62-1.57-4.86-.32-.77.77-.86,2.04-.46,3.05.4,1.01,1.21,1.81,2.08,2.47,1.49,1.15,3.21,2.01,5.02,2.52,1.72.48,3.54.65,5.19,1.35,1.65.7,5.68,7.09,5.8,8.87l3.09-1.69c-1-4.64-.23-9.99,3.27-13.2,1.12-1.03,2.47-1.79,3.55-2.86,2.5-2.46,3.3-6.2,3.25-9.71Z"/>
        <path class="cls-5" d="M173.37,390.55c.35-2.03.98-4.14,2.54-5.48,1.56-1.34,4.28-1.49,5.48.18.44.61.63,1.36.74,2.11.31,2.03.13,4.14-.5,6.1-.77,2.34-2.19,4.51-2.42,6.96-.19,1.96.78,4.29,2.72,4.63,1.48.26,2.95-.79,3.63-2.13.68-1.34.73-2.91.7-4.41-.06-2.57-.34-5.13-.61-7.68-.73-6.75-1.47-13.55-3.44-20.04-.74-2.43-1.65-4.84-1.82-7.38-.14-2.11.32-4.38,1.83-5.86,1.97-1.93,5.27-1.95,7.69-.63,2.42,1.32,4.07,3.72,5.25,6.21,2.81,5.96,3.35,12.85,2.15,19.33-1.2,6.48-4.08,12.57-7.76,18.04-.57.85-1.19,1.76-1.18,2.79.01,1.03,1.02,2.08,1.98,1.72.33-.12.59-.39.82-.65,2.29-2.69,2.57-6.48,3.67-9.84.57-1.74,1.38-3.4,2.39-4.92.85-1.26,1.86-2.45,3.18-3.21,1.32-.76,2.97-1.04,4.37-.46,1.95.81,2.94,3.02,3.21,5.12.42,3.32-.59,6.8-2.72,9.38-4.07,4.93-11.33,6.08-15.84,10.61-.67.68-1.29,1.77-.67,2.5.37.44,1.04.5,1.61.4,2.36-.39,3.94-2.53,5.65-4.2,1.54-1.51,3.36-2.75,5.34-3.62,1.87-.82,4.43-1.15,5.62.51.74,1.02.62,2.49-.03,3.58-.64,1.09-1.72,1.85-2.82,2.46-1.92,1.05-4.04,1.73-6.21,1.98-2.06.24-4.17.11-6.18.61-2.01.5-7.79,7.09-8.24,9.12l-3.23-2.49c1.98-5.14,2.06-11.4-1.37-15.71-1.1-1.38-2.5-2.5-3.55-3.91-2.42-3.27-2.66-7.69-1.97-11.7Z"/>
        <path class="cls-7" d="M303.17,443.66c-1.34-2.46-3.92-4.43-6.71-4.23-2.27.16-4.23,1.7-5.61,3.51-2.52,3.31-3.51,7.73-2.65,11.79.76,3.6,2.85,6.77,3.97,10.28,1.12,3.5.97,7.91-1.94,10.17-1.12.86-2.75,1.28-3.94.53-1.15-.73-1.5-2.26-1.38-3.61.12-1.35.59-2.66.66-4.01.12-2.31-1.02-4.64-2.91-5.96-1.08-.75-2.8-1.05-3.52.05-.55.83-.15,1.94.25,2.85.91,2.07,1.83,4.13,2.74,6.2.23.52.46,1.08.33,1.63-.2.79-1.13,1.22-1.93,1.08s-1.47-.69-2-1.3c-3.52-4.04-2.66-10.53-5.92-14.77-.67-.88-1.54-1.65-2.6-1.95s-2.33-.05-3.01.81c-.44.56-.6,1.29-.66,2-.37,4.19,2.1,8.09,4.86,11.26,2.76,3.17,5.98,6.08,7.68,9.93.58,1.31.97,2.75.78,4.17-.19,1.42-1.06,2.81-2.39,3.32l8.32,3.75c-.78-3.59.44-7.54,3.09-10.08,1.35-1.29,3-2.2,4.57-3.22,5.16-3.35,9.64-8.16,11.29-14.09,1.08-3.88.89-7.99.55-12-.23-2.79-.56-5.65-1.9-8.1Z"/>
        <g>
          <path class="cls-11" d="M632.02,408.48c-3.27-1.9-6.6-4.14-8.27-7.54-1.43-2.92-1.45-6.38-.65-9.53s2.37-6.05,4.02-8.85c.85-1.45,1.76-2.98,1.71-4.66-.07-2.2-1.76-3.99-3.47-5.37s-3.64-2.69-4.55-4.69c-1.32-2.92-.06-6.35,1.59-9.1,1.65-2.75,3.74-5.41,4.17-8.59.58-4.29-1.97-8.3-3.15-12.47-.68-2.39-.91-4.9-1.81-7.22s-2.66-4.52-5.1-4.98"/>
          <path class="cls-11" d="M631.72,408.53c-2.53-.69-4.26-3.35-4.19-5.96.07-2.62,1.76-5.05,4.05-6.33,2.49-1.4,5.73-1.69,7.51-3.92,1.81-2.27,1.41-5.8,3.35-7.96,2.82-3.15,8.74-1.54,11.45-4.78.68-.82,1.06-1.85,1.27-2.89.56-2.78-.05-5.77-1.64-8.11"/>
          <path class="cls-11" d="M626.86,404.9c-1.01-1.31-3-3.03-4.54-3.65-1.75-.71-3.75-.29-5.5.43-1.34.55-2.61,1.28-3.76,2.17-1.01.78-1.94,1.67-3.03,2.34-1.54.94-3.32,1.38-5.09,1.73-1.84.36-3.77.62-5.58.12-1.14-.31-2.18-.91-3.2-1.51-1.16-.67-2.32-1.35-3.48-2.02"/>
          <path class="cls-11" d="M622.75,393.09c-.28-1.16-1.03-2.27-1.97-3.03-1.66-1.34-3.78-1.93-5.7-2.85-2.28-1.09-4.44-2.88-5.01-5.34-.58-2.52.61-5.24-.2-7.69-.71-2.16-2.82-3.56-4.99-4.26-2.16-.69-4.46-.84-6.66-1.4-1.62-.41-3.25-1.11-4.28-2.42-1.79-2.3-1.21-5.66-2.39-8.32-.79-1.77-2.34-3.13-4.08-3.96-1.75-.84-3.69-1.19-5.62-1.35"/>
          <path class="cls-11" d="M624.66,386.84c.36-.99,1.34-1.64,2.34-1.97,1-.33,2.07-.41,3.1-.67,3.64-.92,6.53-4.28,6.89-8.02.13-1.3-.03-2.64.29-3.91.28-1.14.93-2.17,1.68-3.07,1.96-2.36,4.74-4.03,7.74-4.65,2.26-.47,4.6-.36,6.88-.69,2.28-.33,4.65-1.23,5.94-3.14.53-.78.84-1.7,1.03-2.62.81-4.16-1.09-8.52-4.11-11.49"/>
          <path class="cls-11" d="M622.63,398.1c-.56-1.28-1.74-2.22-3.04-2.75-1.3-.53-2.72-.68-4.12-.75-1.69-.08-3.4-.04-5.02.46-1.69.53-3.19,1.54-4.83,2.22-1.99.82-4.2,1.13-6.34.9-2.31-.25-4.75-1.34-5.68-3.47-.67-1.56-.41-3.33-.33-5.03.07-1.49-.02-3.04-.74-4.35-.69-1.27-1.89-2.17-3.11-2.94-2.19-1.37-4.7-2.46-7.27-2.22"/>
          <path class="cls-11" d="M641.65,366.53c.66-.78,1.06-1.75,1.33-2.73.49-1.8.56-3.79-.26-5.47-.83-1.7-2.45-2.85-3.95-4.01-2.21-1.71-4.38-3.71-5.25-6.37-.4-1.23-.5-2.55-.52-3.85-.06-3.52.55-7.26,2.84-9.94"/>
          <path class="cls-11" d="M646.49,364.46c1.05-.31,1.93-1.03,2.66-1.84,1.28-1.41,2.24-3.21,2.29-5.12.08-2.95-1.94-5.5-2.92-8.29-1.41-3.98-.58-8.68,2.12-11.93"/>
          <path class="cls-11" d="M619.66,364.05c-1.58.16-3.16-.12-4.72-.39-1.42-.25-2.88-.52-4.12-1.26-.8-.48-1.48-1.13-2.12-1.81-.89-.94-1.75-1.95-2.2-3.16-.83-2.2-.22-4.71-.89-6.97-.33-1.12-.96-2.13-1.71-3.02-2.07-2.47-5.1-4.12-8.3-4.5"/>
          <path class="cls-11" d="M595.84,397.33c-2.25,1.08-4.73,2.1-7.18,1.64-2.4-.45-4.33-2.23-5.8-4.17-.67-.88-1.33-1.86-2.36-2.27"/>
          <path class="cls-11" d="M614.63,387.3c-1.8.79-3.66,1.43-5.57,1.9-1.14.28-2.31.51-3.48.37-2.12-.24-3.91-1.63-5.58-2.96"/>
          <path class="cls-11" d="M610.08,382.74c-3.4,0-6.77-1.46-9.12-3.91-.85-.89-1.58-1.91-2.5-2.73-1.75-1.55-4.1-2.25-6.42-2.53-2.32-.28-4.67-.17-7-.31"/>
          <path class="cls-11" d="M599.83,369.02c2.57-2.13,3.46-6.05,2.07-9.09-.86-1.86-2.41-3.29-3.8-4.8-1.39-1.5-2.71-3.25-2.9-5.3"/>
          <path class="cls-11" d="M619.01,388.42c1-1.86,1.47-4.29.23-5.99-.69-.95-1.78-1.51-2.69-2.25-1.54-1.27-2.52-3.1-3.08-5.02-.55-1.91-.7-3.92-.8-5.91"/>
          <path class="cls-11" d="M617.31,368.44c.67,1.34,1.23,2.74,1.66,4.17.31,1.04.57,2.14.38,3.21-.26,1.51-1.46,2.82-2.94,3.23"/>
          <path class="cls-11" d="M593.15,365.94c-1.2.35-2.42.7-3.68.72-1.25.02-2.56-.33-3.45-1.21-.9-.88-1.26-2.17-2.01-3.18-.97-1.29-2.59-2.05-4.2-1.96"/>
          <path class="cls-11" d="M606.59,355.77c1.2-.12,2.16-1.05,2.89-2.02,1.07-1.43,1.87-3.2,1.57-4.96-.28-1.58-1.39-2.86-2.21-4.25-.9-1.52-1.47-3.24-1.66-5"/>
          <path class="cls-11" d="M621.4,359.76c-2.47-1.18-5-2.47-6.68-4.63"/>
          <path class="cls-11" d="M624.37,354.51c-2.58-.14-4.94-1.86-6.16-4.13-1.23-2.28-1.4-5.03-.8-7.54.41-1.73,1.17-3.39,1.37-5.16.19-1.77-.35-3.8-1.91-4.67"/>
          <path class="cls-11" d="M612.61,335.35c.21.89.42,1.79.63,2.68.26,1.12.53,2.25.98,3.32.54,1.26,1.34,2.42,2.34,3.36"/>
          <path class="cls-11" d="M627.99,374.64c1.47-.25,2.73-1.39,3.25-2.79.52-1.4.32-3.02-.42-4.33-1.06-1.88-3.14-3.12-3.86-5.15-.78-2.19.25-4.57,1.26-6.67"/>
          <path class="cls-11" d="M633.94,355.82c.72,1.83.77,3.91.15,5.78-.62,1.87-1.92,3.5-3.59,4.53"/>
          <path class="cls-11" d="M648.48,381.92c1.26-1.49,2.01-3.41,2.08-5.36.07-1.95-.54-3.92-1.7-5.49"/>
          <path class="cls-11" d="M632.79,395.11c-.97-1.91-1.22-4.18-.69-6.26"/>
          <path class="cls-11" d="M649.3,351.61c-1.07.37-2.26.17-3.32-.23-1.59-.6-3-1.67-4.02-3.03-1.73-2.31-2.24-5.32-2.24-8.2"/>
          <path class="cls-11" d="M647.51,344.22c-1.76-1.57-3.05-3.66-3.67-5.94"/>
          <path class="cls-11" d="M660.56,355.78c-2.03-.05-4.04-.94-5.44-2.41"/>
          <path class="cls-11" d="M642.23,384.29c.28-1.24.06-2.57-.59-3.66-.32-.53-.73-1-.97-1.56-.32-.76-.3-1.64-.09-2.44s.58-1.55.96-2.29"/>
          <path class="cls-11" d="M585.23,397.17c.95-1.23,1.51-2.77,1.55-4.32.04-1.56-.42-3.12-1.3-4.4"/>
          <path class="cls-11" d="M606.07,407.46c-2.05-1.98-4.49-3.55-7.14-4.59"/>
          <path class="cls-11" d="M632.81,343.21c-1.92-.59-3.22-2.39-4.08-4.2-.98-2.08-1.57-4.34-1.73-6.63"/>
          <path class="cls-11" d="M604.55,348.55c-1.11.24-2.27.25-3.38.01-.56-.12-1.11-.3-1.65-.48"/>
          <path class="cls-11" d="M608.46,373.22c-.2.36-.62.53-1.01.65-1.93.62-3.96.95-5.98.96"/>
          <path class="cls-11" d="M598.15,376.29c-.85.72-1.7,1.44-2.65,2.02-.95.57-2.02,1-3.13,1.06-.5.03-1.11.03-1.38.46"/>
          <path class="cls-11" d="M608.4,395.01c-.98-.72-2.27-.83-3.49-.78-1.21.05-2.44.23-3.63-.02-.75-.16-1.47-.49-2.11-.91-1.06-.71-1.94-1.69-2.52-2.82"/>
          <path class="cls-11" d="M606.31,389.01c.55-.87.77-1.95.58-2.96"/>
        </g>
        <g>
          <path class="cls-10" d="M111.58,359.4c2.77-1.66,5.58-3.61,6.96-6.53,1.19-2.51,1.16-5.46.44-8.14-.72-2.68-2.09-5.14-3.54-7.51-.74-1.22-1.54-2.52-1.51-3.96.03-1.88,1.45-3.43,2.9-4.62,1.45-1.2,3.08-2.34,3.83-4.06,1.09-2.51-.03-5.42-1.47-7.75-1.44-2.33-3.25-4.57-3.66-7.28-.55-3.65,1.58-7.11,2.54-10.68.55-2.05.72-4.19,1.45-6.18.73-1.99,2.22-3.89,4.29-4.31"/>
          <path class="cls-10" d="M111.84,359.44c2.15-.62,3.6-2.91,3.5-5.14s-1.57-4.29-3.53-5.35c-2.14-1.16-4.91-1.37-6.45-3.25-1.57-1.92-1.27-4.93-2.95-6.75-2.44-2.65-7.47-1.21-9.83-3.94-.59-.69-.93-1.57-1.12-2.45-.51-2.36-.03-4.92,1.3-6.94"/>
          <path class="cls-10" d="M115.95,356.28c.85-1.13,2.53-2.62,3.83-3.17,1.48-.62,3.2-.3,4.7.3,1.15.46,2.24,1.06,3.23,1.8.87.65,1.68,1.4,2.61,1.96,1.32.78,2.85,1.14,4.37,1.41,1.58.28,3.23.48,4.77.04.97-.28,1.85-.81,2.71-1.33l2.94-1.77"/>
          <path class="cls-10" d="M119.3,346.15c.23-.99.85-1.95,1.65-2.61,1.4-1.16,3.2-1.69,4.83-2.51,1.93-.96,3.76-2.51,4.21-4.62.47-2.15-.58-4.47.08-6.57.58-1.85,2.37-3.08,4.2-3.69,1.84-.62,3.8-.77,5.66-1.27,1.38-.37,2.76-.98,3.62-2.12,1.5-1.98.96-4.85,1.94-7.13.65-1.52,1.96-2.7,3.44-3.43,1.48-.73,3.13-1.06,4.78-1.22"/>
          <path class="cls-10" d="M117.6,340.84c-.32-.84-1.16-1.38-2.02-1.65-.86-.27-1.77-.33-2.65-.53-3.12-.74-5.63-3.58-5.98-6.76-.12-1.11,0-2.25-.29-3.34-.25-.97-.82-1.84-1.47-2.6-1.7-1.99-4.09-3.38-6.66-3.87-1.93-.37-3.93-.25-5.88-.51-1.95-.26-3.98-.99-5.11-2.6-.46-.66-.74-1.44-.91-2.23-.75-3.54.82-7.28,3.37-9.85"/>
          <path class="cls-10" d="M119.46,350.43c.46-1.1,1.46-1.92,2.56-2.39,1.1-.47,2.31-.62,3.5-.69,1.44-.09,2.9-.08,4.29.33,1.45.43,2.74,1.28,4.15,1.83,1.71.68,3.6.92,5.42.69,1.97-.25,4.04-1.2,4.8-3.03.56-1.34.31-2.85.22-4.29-.08-1.27-.02-2.6.58-3.72.57-1.09,1.59-1.87,2.62-2.54,1.85-1.2,3.98-2.15,6.18-1.98"/>
          <path class="cls-10" d="M102.85,323.72c-.57-.66-.92-1.48-1.16-2.31-.44-1.53-.53-3.23.15-4.67.69-1.46,2.06-2.46,3.32-3.47,1.87-1.48,3.69-3.22,4.4-5.5.33-1.06.4-2.18.4-3.29,0-3.01-.56-6.19-2.54-8.45"/>
          <path class="cls-10" d="M98.7,322.01c-.9-.25-1.66-.86-2.29-1.54-1.11-1.19-1.95-2.71-2.02-4.34-.1-2.52,1.58-4.72,2.39-7.11,1.15-3.42.39-7.41-1.95-10.16"/>
          <path class="cls-10" d="M121.58,321.33c1.35.12,2.7-.14,4.03-.39,1.21-.23,2.45-.48,3.5-1.12.68-.42,1.25-.99,1.79-1.57.75-.81,1.47-1.69,1.84-2.73.68-1.89.13-4.03.67-5.96.27-.96.79-1.83,1.42-2.6,1.74-2.14,4.3-3.58,7.03-3.95"/>
          <path class="cls-10" d="M142.32,349.44c1.94.9,4.06,1.73,6.15,1.31,2.04-.41,3.67-1.96,4.9-3.63.56-.76,1.11-1.6,1.99-1.96"/>
          <path class="cls-10" d="M126.16,341.11c1.54.65,3.14,1.17,4.77,1.55.98.23,1.98.4,2.97.28,1.81-.23,3.32-1.44,4.73-2.59"/>
          <path class="cls-10" d="M129.99,337.17c2.9-.05,5.76-1.33,7.73-3.45.72-.77,1.32-1.65,2.1-2.36,1.48-1.34,3.47-1.97,5.45-2.24s3.98-.2,5.97-.35"/>
          <path class="cls-10" d="M138.57,325.33c-2.22-1.79-3.03-5.12-1.88-7.73.71-1.6,2.01-2.84,3.18-4.14,1.17-1.3,2.27-2.81,2.41-4.56"/>
          <path class="cls-10" d="M122.44,342.13c-.87-1.58-1.31-3.64-.27-5.11.58-.82,1.5-1.31,2.27-1.96,1.29-1.1,2.12-2.68,2.56-4.32.45-1.64.55-3.35.61-5.05"/>
          <path class="cls-10" d="M123.65,325.05c-.56,1.15-1.01,2.35-1.36,3.58-.26.89-.46,1.83-.28,2.75.24,1.29,1.28,2.39,2.55,2.72"/>
          <path class="cls-10" d="M144.23,322.62c1.03.28,2.08.56,3.15.57,1.07,0,2.18-.31,2.93-1.07.75-.76,1.05-1.87,1.68-2.73.81-1.11,2.19-1.78,3.56-1.72"/>
          <path class="cls-10" d="M132.63,314.11c-1.03-.09-1.86-.87-2.49-1.69-.93-1.21-1.64-2.71-1.4-4.22.22-1.35,1.15-2.46,1.84-3.65.75-1.31,1.22-2.78,1.36-4.29"/>
          <path class="cls-10" d="M120.05,317.7c2.09-1.04,4.24-2.17,5.64-4.03"/>
          <path class="cls-10" d="M117.45,313.26c2.2-.15,4.19-1.65,5.21-3.6,1.02-1.96,1.13-4.31.59-6.45-.37-1.48-1.04-2.88-1.23-4.39-.19-1.51.25-3.25,1.57-4.01"/>
          <path class="cls-10" d="M127.25,296.76c-.17.77-.34,1.53-.5,2.3-.21.96-.42,1.93-.8,2.84-.44,1.09-1.11,2.08-1.95,2.9"/>
          <path class="cls-10" d="M114.6,330.48c-1.26-.2-2.35-1.15-2.81-2.34-.46-1.19-.31-2.58.3-3.7.88-1.62,2.64-2.7,3.23-4.44.64-1.88-.27-3.9-1.16-5.67"/>
          <path class="cls-10" d="M109.3,314.49c-.59,1.57-.61,3.35-.05,4.93.55,1.58,1.68,2.96,3.12,3.82"/>
          <path class="cls-10" d="M97.21,336.94c-1.1-1.25-1.75-2.88-1.84-4.55-.08-1.66.41-3.35,1.38-4.7"/>
          <path class="cls-10" d="M110.76,348c.8-1.64.99-3.58.51-5.35"/>
          <path class="cls-10" d="M96.14,311.08c.92.3,1.93.12,2.83-.24,1.35-.53,2.54-1.46,3.39-2.64,1.44-1.99,1.85-4.57,1.81-7.03"/>
          <path class="cls-10" d="M97.57,304.76c1.48-1.36,2.56-3.16,3.06-5.11"/>
          <path class="cls-10" d="M86.58,314.78c1.74-.07,3.43-.85,4.62-2.12"/>
          <path class="cls-10" d="M102.57,338.89c-.25-1.05-.08-2.2.46-3.13.26-.45.61-.86.81-1.34.27-.66.24-1.4.05-2.09-.19-.68-.52-1.32-.85-1.94"/>
          <path class="cls-10" d="M151.37,349.18c-.83-1.04-1.32-2.34-1.38-3.67-.06-1.33.32-2.67,1.06-3.77"/>
          <path class="cls-10" d="M133.71,358.21c1.72-1.72,3.79-3.08,6.04-4"/>
          <path class="cls-10" d="M110.11,303.72c1.63-.53,2.72-2.07,3.43-3.64.81-1.79,1.28-3.72,1.39-5.68"/>
          <path class="cls-10" d="M134.29,307.92c.95.19,1.94.18,2.89-.03.48-.11.94-.27,1.41-.43"/>
          <path class="cls-10" d="M131.26,329.02c.17.31.53.44.87.54,1.65.51,3.39.76,5.12.74"/>
          <path class="cls-10" d="M140.09,331.51c.73.6,1.47,1.21,2.29,1.69.82.48,1.74.83,2.68.86.43.02.94.01,1.18.37"/>
          <path class="cls-10" d="M131.57,347.62c.83-.63,1.93-.73,2.96-.71,1.04.03,2.09.16,3.1-.06.64-.14,1.25-.43,1.79-.81.9-.62,1.63-1.46,2.11-2.44"/>
          <path class="cls-10" d="M133.28,342.47c-.48-.73-.68-1.65-.53-2.52"/>
        </g>
        <g>
          <path class="cls-8" d="M391.61,457.9c-1.76-2.11-3.16-4.52-4.13-7.09-.65-1.71-1.11-3.56-.83-5.37.87-5.7,8.36-8.55,9.3-14.24.43-2.62-.69-5.27-2.19-7.46-3.16-4.6-8.12-7.95-10.37-13.06-1.56-3.54-1.62-7.68-.32-11.32,1.3-3.64,3.92-6.77,7.2-8.82"/>
          <path class="cls-8" d="M390.28,455.45c-1.2-1.04-1.91-2.62-1.89-4.21.03-1.59.79-3.15,2.03-4.14,1.21-.97,2.76-1.37,4.22-1.87,2-.68,3.94-1.57,5.75-2.65,1.17-.7,2.32-1.51,3.03-2.66.91-1.49.96-3.35.74-5.08-.22-1.73-.7-3.43-.74-5.18-.11-4.04,2.3-8.04,5.93-9.83"/>
          <path class="cls-8" d="M389.51,456.15c-1.21-1.93-3.09-3.32-4.61-5.01-2.14-2.37-3.58-5.37-4.09-8.53-.38-2.35-.27-4.84-1.28-7-1.04-2.22-3.14-3.77-5.34-4.87-2.74-1.36-5.75-2.15-8.8-2.32"/>
          <path class="cls-8" d="M393.45,435.97c.56-2.56-.8-5.25-2.82-6.93-2.02-1.68-4.59-2.51-7.13-3.17-2.54-.65-5.15-1.17-7.49-2.33-1.85-.92-3.52-2.24-4.68-3.95-2.15-3.16-2.35-7.22-2.48-11.04"/>
          <path class="cls-8" d="M389.31,418.55c-.88-1.23-1.27-3.4-.95-4.88s1.28-2.81,2.59-3.58c.88-.51,1.87-.77,2.85-1.04,2.18-.61,4.34-1.36,6.28-2.54,1.94-1.17,3.65-2.8,4.62-4.84,1.08-2.25,1.2-4.82,1.7-7.26"/>
          <path class="cls-8" d="M366.32,435.53c.82,1.85,2.74,2.94,4.62,3.69,2.87,1.15,6.18,1.79,9.01.55"/>
          <path class="cls-8" d="M382.47,446.85c-.53-1.03-.35-2.31.13-3.37s1.25-1.96,1.91-2.91c1.01-1.45,1.83-3.09,2-4.86.17-1.76-.39-3.66-1.74-4.8"/>
          <path class="cls-8" d="M379.99,424.46c-1.56-2.09-2.81-4.47-3.32-7.03-.51-2.56-.24-5.33,1.04-7.6"/>
          <path class="cls-8" d="M396.52,408.18c-1.75-1.81-2.79-4.28-2.85-6.8-.06-2.51.85-5.04,2.51-6.93"/>
          <path class="cls-8" d="M403.82,403.76c1.84.5,3.79-.41,5.3-1.57,1.3-1,2.43-2.21,3.35-3.57"/>
          <path class="cls-8" d="M381.84,403.86c-2.18-2-3.65-4.76-4.07-7.69-.42-2.93.2-5.99,1.72-8.53"/>
          <path class="cls-8" d="M395.19,444.64c-.44-1.22-.24-2.61.32-3.78.56-1.17,1.46-2.14,2.43-3.01"/>
          <path class="cls-8" d="M395.96,428.4c.57-.75.65-1.77.56-2.71s-.33-1.87-.31-2.82c.02-1.24.49-2.43,1.12-3.51.45-.78,1.01-1.52,1.75-2.03.91-.62,2.03-.84,3.11-1.09,4.22-1,8.5-3.01,10.73-6.73"/>
          <path class="cls-8" d="M404.49,436.33c4.41-1.48,7.9-5.41,8.85-9.96"/>
          <path class="cls-8" d="M371.43,420.48c-2,.25-4.02-.62-5.52-1.97-1.49-1.35-2.52-3.14-3.35-4.98"/>
          <path class="cls-8" d="M372.88,439.85c.23-.92.08-1.9-.27-2.78s-.88-1.67-1.44-2.43"/>
          <path class="cls-8" d="M402.39,415.72c-1.34-1.83-1.28-4.55.14-6.32"/>
          <path class="cls-8" d="M382.86,408.17c1.1.04,2.21-.24,3.16-.79,1.59-.94,2.64-2.58,3.42-4.26"/>
          <path class="cls-8" d="M394.17,400.28c1.29.08,2.6,0,3.83-.41s2.35-1.18,3.04-2.27"/>
          <path class="cls-8" d="M381.76,419.06c1.01,1.31,2.51,2.24,4.14,2.56,1.63.32,3.37.02,4.8-.81"/>
          <path class="cls-8" d="M403.13,427.14c-1.66-1.4-2.67-3.55-2.68-5.72"/>
          <path class="cls-8" d="M375.87,431.15c-.09-1.41-.64-2.79-1.54-3.88-.9-1.09-2.15-1.88-3.52-2.24"/>
        </g>
        <g>
          <path class="cls-4" d="M500.45,373.02c-.52-2.43,6.3-5.96,15.24-7.89s16.61-1.53,17.13.9c.07.32,0,.67-.18,1.02-.47,1.9-2.21,6.08-8.59,9.47-1.46.78-2.41,2.26-2.48,3.91l-.25,5.54-1.08.23-1.08.23-2.52-4.94c-.75-1.47-2.23-2.44-3.88-2.54-7.21-.46-10.52-3.55-11.73-5.08-.31-.25-.51-.53-.58-.86Z"/>
          <path class="cls-8" d="M531.92,367.47c1.7-3.48,1.19-7.93-1.27-10.92-2.1-2.56-5.44-4.09-6.85-7.09-.96-2.04-.83-4.41-.68-6.66"/>
          <path class="cls-8" d="M501.91,373.95c-2.99-2.46-4.35-6.73-3.34-10.47.86-3.19,3.27-5.98,3.31-9.28.03-2.26-1.07-4.36-2.13-6.34"/>
          <path class="cls-8" d="M528.11,366.26c.4-1.19.77-2.41.84-3.67.08-1.26-.16-2.56-.87-3.6-1.03-1.5-2.85-2.21-4.28-3.34-1.46-1.16-2.52-2.82-2.96-4.64"/>
          <path class="cls-8" d="M522.81,366.98c.58-1.77,1.14-3.75.34-5.44-.7-1.48-2.27-2.3-3.51-3.37-.89-.77-1.64-1.69-2.21-2.72-1.52-2.78-1.62-6.09-1.68-9.25"/>
          <path class="cls-8" d="M505.05,371.24c-.86-.92-1.69-1.88-2.28-2.99-.59-1.11-.92-2.4-.7-3.64.32-1.79,1.69-3.19,2.52-4.81.85-1.66,1.13-3.61.78-5.45"/>
          <path class="cls-8" d="M510.17,369.71c-1.26-1.38-2.59-2.95-2.56-4.81.03-1.64,1.11-3.03,1.8-4.52.49-1.07.8-2.22.89-3.39.24-3.16-1.03-6.21-2.29-9.12"/>
          <path class="cls-8" d="M513.12,350.51c.02,2.2.04,4.46.92,6.47.55,1.26,1.41,2.36,2.04,3.58,1.07,2.09,1.44,4.54,1.01,6.85"/>
        </g>
        <g>
          <path class="cls-5" d="M743.16,294.72c-.47-2.53-8.42-3.17-17.74-1.42-9.32,1.75-16.49,5.22-16.02,7.75.06.34.27.64.58.9,1.21,1.62,4.56,4.92,12.02,5.6,1.71.16,3.21,1.2,3.95,2.74l2.47,5.2,1.12-.21,1.12-.21.42-5.74c.12-1.71,1.15-3.22,2.69-3.99,6.71-3.33,8.63-7.62,9.17-9.57.19-.36.27-.72.21-1.05Z"/>
          <path class="cls-10" d="M740.75,298.43c1.51-3.75,2-7.86,1.93-11.9-.07-4.05-.68-8.06-1.29-12.06"/>
          <path class="cls-10" d="M713.03,303.63c-2.77-2.95-4.71-6.6-6.11-10.4-1.4-3.8-2.28-7.76-3.16-11.71"/>
          <path class="cls-10" d="M714.9,300.36c-2.59-3.65-4.53-7.77-5.68-12.09"/>
          <path class="cls-10" d="M718.45,299.63c-2.91-6.97-5.01-14.28-6.23-21.74"/>
          <path class="cls-10" d="M722.24,296.37c-1.41-3.46-2.28-7.14-2.56-10.87"/>
          <path class="cls-10" d="M736.92,296.23c1.09-4.34,1.41-8.88.91-13.33"/>
          <path class="cls-10" d="M733.35,296.84c.19-7.55-.51-15.12-2.06-22.52"/>
          <path class="cls-10" d="M728.63,295.17c.06-3.74-.46-7.48-1.56-11.06"/>
          <path class="cls-10" d="M725.14,295.6c-.34-7.52-3-14.82-3.05-22.34"/>
        </g>
        <g>
          <path class="cls-5" d="M17.05,282.38c-.01-2.58,7.66-4.7,17.15-4.75s17.18,2,17.19,4.58c0,.34-.14.68-.4,1-.89,1.82-3.55,5.7-10.74,7.78-1.65.48-2.93,1.78-3.36,3.44l-1.44,5.57h-1.14s-1.14.01-1.14.01l-1.5-5.55c-.45-1.66-1.74-2.95-3.39-3.41-7.22-2-9.92-5.85-10.82-7.66-.26-.32-.4-.65-.41-.99Z"/>
          <path class="cls-10" d="M20.12,285.56c-2.2-3.4-3.45-7.34-4.15-11.32-.7-3.99-.85-8.04-1.01-12.09"/>
          <path class="cls-10" d="M48.33,285.42c2.16-3.42,3.37-7.37,4.03-11.36.65-3.99.77-8.05.89-12.1"/>
          <path class="cls-10" d="M45.87,282.56c1.85-4.08,2.97-8.48,3.29-12.95"/>
          <path class="cls-10" d="M42.25,282.52c1.54-7.4,2.21-14.97,2-22.52"/>
          <path class="cls-10" d="M37.9,280.03c.73-3.67.88-7.45.45-11.16"/>
          <path class="cls-10" d="M23.46,282.68c-1.9-4.06-3.06-8.45-3.42-12.91"/>
          <path class="cls-10" d="M27.09,282.6c-1.61-7.38-2.37-14.95-2.24-22.5"/>
          <path class="cls-10" d="M31.41,280.07c-.77-3.66-.96-7.44-.57-11.15"/>
          <path class="cls-10" d="M34.91,279.82c-1.09-7.45.14-15.12-1.24-22.52"/>
        </g>
        <g>
          <path class="cls-5" d="M485.21,440.1c-12.37-5.27-21.44-13.42-17.97-28.05,1.39-7.45,4.31-14.57,4.01-22.01-.32-11.43-10.6-19.25-21.07-21.8,12.33-.42,24.95,8.54,25.8,21.48.73,8.12-2.31,15.78-4.11,23.31-3.89,12.99,4,19.56,13.34,27.08h0Z"/>
          <path class="cls-5" d="M485.69,440.16c-5.3-2.91-10-7.33-11.95-13.34-2.22-6.16.61-13.1,3.95-18.13,3.16-4.99,6.37-9.32,6.86-14.55.6-5.23-.79-10.84-3.85-15.84,7.26,5.44,10.02,16.97,5.68,25.3-1.91,4.18-4.49,7.47-6.58,11.32-5.69,9.25-.58,17.97,5.89,25.24h0Z"/>
          <path class="cls-5" d="M486.74,440.16c-15.15,1.36-26.01-11.44-25.52-26.25.06-12.91-9.78-22.49-21.42-27.11,9.97.61,20.18,7.01,24.24,16.6,2.25,4.64,2.11,10.11,2.39,15.02.93,10.92,9.32,19.55,20.3,21.74h0Z"/>
          <path class="cls-5" d="M484.85,440.43c-5.35,2.95-12.3,2.07-17.31-1.31-3.25-2.19-5.15-5.15-8.25-7.12-4.45-2.9-9.34-4.03-14.95-3.83,4.94-3.34,12.08-3.15,17.36-.26,3.39,1.64,5.97,5.14,8.64,7.39,4.13,3.32,8.9,4.88,14.51,5.12h0Z"/>
          <path class="cls-5" d="M486.16,439.68c-4.97-2.1-7.75-8.08-7.27-13.39.53-5.83,6.1-9.39,10.49-11.95,1.57-.97,3-1.94,4.13-3.11,2.38-2.54,3.68-6.46,5.01-9.84.63,4.17.42,8.39-1.89,12.23-2.28,3.58-6.15,5.6-9.21,7.96-2.78,2.11-4.47,4.25-4.51,7.83-.03,3.44.79,7.09,3.25,10.28h0Z"/>
        </g>
        <g>
          <path class="cls-7" d="M367.88,445.55c-.95-2.02-2.31-3.86-3.97-5.35-1.18-1.06-2.52-1.96-3.61-3.12s-1.93-2.68-1.81-4.27c.21-2.78,3.13-4.54,4.21-7.11,1.39-3.31-.57-7.07-2.9-9.81-2.33-2.73-5.21-5.28-6.09-8.76-.92-3.63.87-7.79,3.49-10.46-3.01,1.65-6.1,3.36-8.32,5.97-2.23,2.62-3.44,6.38-2.13,9.56,1.17,2.85,4.01,4.6,5.99,6.96,1.13,1.35,2.02,3.09,1.7,4.83-.5,2.77-3.7,4.28-4.64,6.93-.85,2.41.43,5.08,2.17,6.94,1.75,1.86,3.96,3.24,5.64,5.16s2.77,4.72,1.67,7.03c-1.27,2.66-4.96,3.73-5.71,6.58-.69,2.64,1.55,5.08,3.68,6.79,2.13,1.71,4.58,3.75,4.48,6.47-.12,3.18-3.57,5.06-5.16,7.81-1.24,2.15-1.26,4.95-.05,7.11,1.21,2.16,3.61,3.61,6.09,3.68l2.87.47c-2.16-.66-3.32-3.18-3.11-5.43.21-2.25,1.47-4.25,2.83-6.05,1.36-1.8,2.96-3.8,2.66-6.04-.34-2.62-3.08-4.2-4.32-6.54-1.37-2.59-.7-5.91,1.05-8.25,1.37-1.84,3.37-3.3,4.05-5.49.57-1.85.05-3.86-.76-5.61Z"/>
          <path class="cls-7" d="M346.67,454.86c-1.25-1.32-3.01-2.39-4.8-3.07-1.27-.49-2.72-.77-3.91-1.44s-2.37-1.48-2.56-2.91c-.32-2.51,1.93-4.02,2.61-6.28.87-2.92-.72-5.31-2.52-7.67-1.8-2.36-3.72-4.35-3.93-7.66-.21-3.31,1.34-6.47,3.72-8.84-2.74,1.33-5.52,2.38-7.72,4.66-2.2,2.29-3.57,5.32-2.72,8.44.76,2.8,3.01,4.32,4.52,6.57.86,1.29,1.49,2.56,1.3,4.14-.29,2.52-2.74,4.3-2.95,6.82-.21,2.52,1.37,4.27,3.38,5.48,2.01,1.21,4.26,1.72,6.33,2.82,2.06,1.11,3.61,3.03,3.49,5.41-.13,2.75-2.7,4.85-2.04,7.6.66,2.76,3.26,3.52,5.7,3.93,2.44.41,5.37.15,7.28,1.86,2.22,1.99,1.83,4.85,3.2,7.42,1.07,2,2.76,3.67,5.17,3.95,2.41.28,4.06-.68,5.77-2.35.5-.49,1.28-1.32,1.84-1.82-1.91,1.12-3.69.48-5.3-.79-1.61-1.26-2.47-3-3.15-4.78-.68-1.78-.89-3.49-2.61-4.55-2.01-1.24-4.44-.29-6.76-1.14-2.31-.85-3.28-3.38-2.7-5.83.45-1.92,1.67-3.64,1.56-5.69-.09-1.73-.95-2.97-2.2-4.29Z"/>
          <path class="cls-7" d="M372.04,458.37c.95-1.15,2.32-2.12,3.74-2.78,1.01-.47,2.18-.78,3.11-1.4.93-.62,1.85-1.35,1.92-2.52.12-2.07-1.81-3.17-2.49-4.98-.88-2.33.29-4.37,1.62-6.4,1.33-2.03,2.79-3.76,2.77-6.47-.02-2.71-1.46-5.2-3.54-7,2.31.93,4.64,1.62,6.56,3.37,1.92,1.74,3.22,4.14,2.7,6.73-.46,2.33-2.21,3.69-3.31,5.62-.63,1.1-1.07,2.18-.83,3.45.38,2.04,2.48,3.35,2.8,5.39.31,2.05-.88,3.56-2.45,4.67-1.57,1.1-3.38,1.64-5,2.66-1.62,1.02-2.77,2.68-2.54,4.61.26,2.24,2.48,3.8,2.1,6.09-.38,2.29-2.46,3.06-4.42,3.53-1.97.47-4.38.43-5.83,1.93-1.7,1.75-1.22,4.06-2.19,6.23-.76,1.7-2.05,3.15-4,3.52-1.95.37-3.35-.33-4.84-1.59-.44-.37-1.12-1-1.61-1.38,1.63.81,3.04.18,4.28-.94,1.24-1.12,1.84-2.59,2.3-4.08.46-1.49.53-2.89,1.87-3.86,1.57-1.13,3.61-.49,5.45-1.31s2.49-2.94,1.87-4.91c-.48-1.54-1.57-2.87-1.6-4.55-.02-1.41.6-2.48,1.55-3.62Z"/>
        </g>
        <g>
          <path class="cls-5" d="M664.49,284.42c-.9-1.85-2.18-3.52-3.73-4.87-1.11-.96-2.35-1.77-3.37-2.82-1.02-1.05-1.82-2.44-1.73-3.9.16-2.57,2.82-4.22,3.78-6.61,1.24-3.07-.62-6.51-2.8-8.99-2.19-2.49-4.87-4.79-5.73-7.99-.89-3.33.69-7.19,3.07-9.68-2.75,1.56-5.57,3.18-7.58,5.62-2.01,2.44-3.08,5.92-1.83,8.83,1.12,2.61,3.76,4.18,5.61,6.33,1.06,1.23,1.9,2.82,1.64,4.42-.42,2.56-3.35,3.99-4.18,6.45-.75,2.23.46,4.67,2.1,6.36,1.63,1.69,3.69,2.93,5.27,4.67,1.57,1.75,2.61,4.31,1.64,6.45-1.13,2.47-4.52,3.5-5.17,6.14-.6,2.44,1.5,4.66,3.48,6.2,1.98,1.54,4.27,3.39,4.21,5.9-.06,2.93-3.22,4.71-4.65,7.26-1.11,2-1.09,4.58.05,6.55s3.37,3.28,5.66,3.31l2.65.39c-2-.58-3.1-2.88-2.94-4.95.16-2.07,1.3-3.94,2.52-5.61,1.23-1.68,2.67-3.54,2.37-5.6-.35-2.41-2.89-3.83-4.06-5.97-1.3-2.36-.72-5.43.85-7.62,1.23-1.71,3.06-3.09,3.65-5.12.5-1.71,0-3.56-.78-5.16Z"/>
          <path class="cls-5" d="M645.09,293.29c-1.17-1.2-2.81-2.16-4.46-2.76-1.18-.43-2.52-.67-3.62-1.27-1.11-.61-2.21-1.33-2.4-2.65-.33-2.31,1.72-3.73,2.32-5.82.76-2.7-.74-4.88-2.42-7.03-1.69-2.15-3.49-3.96-3.72-7s1.15-5.97,3.3-8.19c-2.51,1.26-5.05,2.26-7.05,4.4s-3.21,4.95-2.39,7.81c.74,2.57,2.83,3.93,4.25,5.99.81,1.18,1.4,2.34,1.26,3.8-.23,2.32-2.46,4-2.62,6.32-.16,2.33,1.32,3.92,3.19,5,1.86,1.09,3.95,1.52,5.87,2.51,1.92.99,3.36,2.74,3.29,4.93-.08,2.53-2.42,4.5-1.78,7.03.65,2.53,3.05,3.2,5.3,3.54,2.25.34,4.95.06,6.73,1.61,2.07,1.8,1.76,4.44,3.05,6.79,1.01,1.83,2.6,3.34,4.82,3.57,2.22.23,3.73-.69,5.28-2.25.46-.46,1.16-1.23,1.67-1.7-1.75,1.06-3.39.49-4.9-.65-1.5-1.14-2.31-2.73-2.97-4.36-.65-1.63-.87-3.2-2.46-4.15-1.87-1.12-4.1-.2-6.24-.96s-3.07-3.06-2.57-5.33c.39-1.78,1.49-3.38,1.36-5.26-.11-1.59-.91-2.72-2.09-3.92Z"/>
          <path class="cls-5" d="M668.51,296.17c.86-1.07,2.11-1.98,3.41-2.61.92-.45,2-.75,2.85-1.33s1.69-1.27,1.73-2.35c.08-1.9-1.71-2.89-2.36-4.55-.84-2.13.2-4.03,1.4-5.92,1.2-1.89,2.52-3.5,2.46-6-.06-2.5-1.42-4.77-3.35-6.4,2.14.82,4.3,1.43,6.09,3.01s3.02,3.77,2.58,6.16c-.39,2.15-1.99,3.43-2.97,5.22-.56,1.02-.95,2.02-.71,3.19.38,1.87,2.33,3.05,2.65,4.93.32,1.88-.76,3.29-2.19,4.33-1.43,1.04-3.09,1.56-4.57,2.52-1.48.96-2.51,2.5-2.28,4.28.27,2.06,2.34,3.46,2.02,5.58s-2.22,2.85-4.03,3.32-4.02.45-5.35,1.86c-1.54,1.64-1.07,3.76-1.93,5.77-.67,1.57-1.84,2.93-3.63,3.3-1.79.37-3.09-.25-4.48-1.4-.41-.34-1.04-.91-1.5-1.25,1.51.72,2.8.12,3.93-.93,1.13-1.05,1.66-2.41,2.06-3.79.4-1.38.44-2.67,1.67-3.58,1.43-1.06,3.32-.5,5-1.29,1.68-.79,2.25-2.74,1.66-4.55-.46-1.41-1.49-2.63-1.54-4.17-.04-1.3.52-2.29,1.38-3.36Z"/>
        </g>
        <g>
          <path class="cls-4" d="M250.41,360.32c.74-1.51,1.78-2.87,3.04-3.97.9-.78,1.92-1.44,2.75-2.3.83-.86,1.48-1.99,1.41-3.18-.13-2.09-2.3-3.44-3.08-5.39-1.01-2.5.5-5.31,2.29-7.33,1.78-2.03,3.97-3.91,4.67-6.51.73-2.72-.57-5.86-2.51-7.9,2.24,1.27,4.54,2.59,6.18,4.58,1.64,1.99,2.51,4.83,1.49,7.2-.91,2.13-3.07,3.41-4.58,5.16-.86,1-1.55,2.3-1.33,3.61.34,2.09,2.73,3.25,3.41,5.26.61,1.82-.38,3.81-1.71,5.19-1.33,1.38-3.01,2.39-4.3,3.81-1.28,1.42-2.13,3.52-1.33,5.26.92,2.01,3.69,2.86,4.22,5.01.49,1.99-1.22,3.8-2.84,5.06-1.62,1.26-3.48,2.76-3.44,4.81.05,2.39,2.63,3.84,3.79,5.92.91,1.63.89,3.73-.04,5.34-.93,1.61-2.75,2.67-4.62,2.7l-2.16.32c1.63-.47,2.53-2.35,2.4-4.04-.13-1.69-1.06-3.21-2.06-4.58-1-1.37-2.18-2.88-1.93-4.57.29-1.97,2.36-3.12,3.31-4.87,1.06-1.93.59-4.43-.7-6.21-1.01-1.4-2.5-2.52-2.98-4.17-.41-1.39,0-2.9.64-4.21Z"/>
          <path class="cls-4" d="M266.24,367.55c.96-.98,2.29-1.76,3.64-2.25.96-.35,2.05-.54,2.96-1.04.9-.49,1.8-1.09,1.95-2.16.27-1.88-1.41-3.04-1.89-4.75-.62-2.2.6-3.98,1.98-5.73,1.37-1.75,2.84-3.23,3.04-5.71.19-2.48-.93-4.87-2.69-6.68,2.05,1.03,4.12,1.85,5.75,3.59s2.62,4.04,1.95,6.37c-.6,2.09-2.31,3.21-3.47,4.89-.66.96-1.14,1.91-1.02,3.1.19,1.89,2.01,3.26,2.14,5.15.13,1.9-1.08,3.19-2.6,4.08-1.52.89-3.22,1.24-4.78,2.05-1.56.81-2.74,2.23-2.68,4.02.07,2.07,1.98,3.67,1.45,5.74-.53,2.07-2.49,2.61-4.32,2.89-1.84.28-4.04.05-5.49,1.31-1.69,1.47-1.43,3.62-2.49,5.53-.82,1.49-2.12,2.72-3.93,2.91s-3.04-.56-4.31-1.83c-.37-.37-.94-1-1.36-1.39,1.42.86,2.77.4,3.99-.53,1.23-.93,1.89-2.22,2.42-3.56.53-1.33.71-2.61,2.01-3.39,1.53-.91,3.34-.17,5.09-.78,1.75-.61,2.5-2.5,2.1-4.35-.32-1.45-1.22-2.75-1.11-4.29.09-1.3.74-2.22,1.7-3.2Z"/>
          <path class="cls-4" d="M247.14,369.89c-.7-.87-1.72-1.62-2.78-2.13-.75-.36-1.63-.61-2.32-1.09-.69-.48-1.38-1.03-1.41-1.92-.07-1.55,1.39-2.36,1.92-3.71.69-1.74-.17-3.29-1.14-4.82s-2.05-2.86-2.01-4.89,1.16-3.89,2.74-5.22c-1.75.67-3.5,1.17-4.97,2.45-1.46,1.29-2.46,3.07-2.11,5.03.32,1.75,1.62,2.8,2.42,4.26.46.84.78,1.65.58,2.6-.31,1.53-1.9,2.49-2.16,4.02-.26,1.53.62,2.69,1.78,3.53,1.16.85,2.52,1.27,3.73,2.06s2.05,2.04,1.86,3.49c-.22,1.68-1.91,2.83-1.65,4.55.26,1.72,1.81,2.33,3.28,2.7,1.47.38,3.28.37,4.36,1.51,1.25,1.33.87,3.06,1.58,4.71.55,1.28,1.5,2.39,2.96,2.69,1.46.3,2.52-.21,3.65-1.14.33-.27.85-.74,1.22-1.02-1.23.59-2.28.1-3.21-.76s-1.35-1.96-1.68-3.09c-.33-1.13-.36-2.18-1.36-2.92-1.17-.87-2.7-.41-4.08-1.05s-1.83-2.24-1.35-3.71c.38-1.15,1.21-2.14,1.25-3.4.03-1.06-.43-1.87-1.12-2.74Z"/>
        </g>
        <g>
          <path class="cls-4" d="M333.85,361.94c2.15-.69,3.9-2.46,4.51-4.63-1.51-.1-3.04.24-4.37.97-1.04.57-1.94,1.38-2.63,2.35-1.67-.24-3.26-.8-4.83-1.48.16-.48.34-.96.55-1.42-1.24-.53-2.47-1.11-3.54-1.94-1.07-.82-1.97-1.91-2.39-3.19-1.7.7-3.22,1.81-4.44,3.19-2.49-.18-5.02.27-7.29,1.31-.91.42-1.78.94-2.68,1.38-.62.31-.73,1.15-.22,1.61.85.76,1.84,1.34,2.9,1.82,1.4.63,2.86,1.15,4.35,1.53.22.26.43.52.68.76.64.59,1.43,1.05,2.3,1.13.19.02.39.01.55-.09.31-.21.27-.68.18-1.04-.01-.05-.03-.1-.05-.16.42.03.83.05,1.25.05.14,0,.28-.02.42-.02.51.48,1.03.94,1.62,1.3.74.45,1.61.74,2.48.65.19-.02.38-.06.52-.2.26-.27.13-.72-.04-1.06-.17-.35-.35-.68-.54-1.01.91-.1,1.82-.19,2.72-.29.86.86,1.85,1.59,2.93,2.16.38.2.86.37,1.21.13.33-.23.35-.7.33-1.1-.04-.54-.12-1.08-.23-1.61.39-.03.78-.05,1.17-.06.43.96,1.04,1.85,1.81,2.57,1.1,1.03,2.51,1.74,3.99,2.02-.05-2.26-1.31-4.4-3.22-5.6Z"/>
          <path class="cls-4" d="M365.72,353.52c2.2-.52,4.09-2.14,4.86-4.26-1.5-.22-3.05,0-4.43.62-1.08.49-2.04,1.23-2.8,2.13-1.65-.37-3.19-1.05-4.7-1.86.2-.47.41-.93.66-1.37-1.2-.62-2.38-1.3-3.38-2.21-1-.91-1.82-2.06-2.13-3.37-1.75.56-3.36,1.55-4.68,2.83-2.47-.37-5.03-.13-7.37.74-.94.35-1.85.79-2.78,1.17-.64.26-.82,1.09-.35,1.58.79.82,1.73,1.48,2.75,2.04,1.35.74,2.76,1.37,4.22,1.86.19.28.39.56.62.81.59.64,1.35,1.16,2.2,1.31.19.03.39.05.55-.05.33-.19.32-.65.26-1.02,0-.05-.02-.11-.03-.16.41.06.83.11,1.24.15.14.01.28,0,.42.01.47.52.95,1.02,1.52,1.43.71.51,1.55.87,2.42.84.19,0,.39-.03.53-.16.28-.25.18-.7.05-1.06-.14-.36-.29-.71-.46-1.05.91-.03,1.83-.05,2.74-.08.79.92,1.72,1.73,2.75,2.38.36.23.83.44,1.2.22.35-.2.41-.67.41-1.07,0-.54-.04-1.09-.1-1.63.39,0,.78,0,1.17.03.35.99.89,1.92,1.6,2.7,1.02,1.12,2.36,1.94,3.82,2.33.13-2.25-.96-4.49-2.77-5.84Z"/>
          <path class="cls-4" d="M368.08,378.84c1.82-.53,3.33-1.97,3.89-3.78-1.26-.12-2.56.13-3.69.71-.88.46-1.66,1.12-2.26,1.91-1.4-.24-2.72-.75-4.02-1.35.15-.4.31-.8.5-1.18-1.03-.47-2.05-.99-2.93-1.71-.88-.72-1.61-1.65-1.93-2.74-1.45.55-2.75,1.45-3.8,2.57-2.08-.21-4.22.11-6.15.93-.78.33-1.52.74-2.28,1.1-.52.24-.64.95-.22,1.34.69.66,1.51,1.17,2.39,1.59,1.16.56,2.37,1.03,3.62,1.38.18.23.35.45.55.65.52.51,1.18.91,1.9,1,.16.02.33.02.46-.06.27-.17.24-.56.17-.87-.01-.04-.02-.09-.04-.13.35.03.7.06,1.05.07.12,0,.23,0,.35,0,.42.41.84.81,1.33,1.13.61.4,1.34.66,2.07.6.16-.01.32-.04.44-.15.23-.22.12-.6,0-.89-.13-.29-.28-.58-.43-.86.76-.06,1.53-.12,2.29-.18.71.74,1.52,1.38,2.41,1.88.31.17.71.33,1.01.13.28-.19.31-.58.3-.92-.02-.46-.08-.91-.15-1.36.33-.02.65-.03.98-.02.34.82.83,1.57,1.46,2.2.9.89,2.06,1.52,3.3,1.79.01-1.89-1-3.73-2.57-4.78Z"/>
          <path class="cls-4" d="M397.2,366.09c1.74-.76,3.05-2.38,3.37-4.25-1.27.04-2.52.46-3.57,1.18-.82.57-1.5,1.32-2,2.18-1.42-.06-2.79-.39-4.16-.83.09-.42.2-.83.34-1.23-1.08-.34-2.16-.72-3.12-1.32-.96-.6-1.81-1.43-2.27-2.46-1.36.73-2.54,1.79-3.44,3.04-2.09.06-4.17.65-5.98,1.72-.73.43-1.41.93-2.12,1.38-.49.31-.51,1.02-.05,1.36.77.56,1.65.96,2.58,1.27,1.22.41,2.49.72,3.76.91.2.2.41.4.63.57.58.44,1.29.75,2.02.75.16,0,.33-.02.45-.12.24-.2.17-.59.06-.89-.02-.04-.04-.08-.05-.13.35-.01.7-.03,1.05-.07.12-.01.23-.04.35-.05.47.36.94.7,1.47.95.66.31,1.41.48,2.13.33.15-.03.32-.09.42-.21.2-.25.05-.61-.12-.88-.17-.27-.35-.54-.54-.8.75-.16,1.5-.32,2.25-.47.79.64,1.68,1.17,2.63,1.55.33.13.75.24,1.02,0,.26-.22.24-.62.18-.95-.08-.45-.19-.89-.33-1.33.32-.06.64-.11.97-.15.44.77,1.03,1.45,1.73,1.99,1.01.77,2.24,1.24,3.51,1.35-.23-1.88-1.47-3.57-3.17-4.41Z"/>
          <path class="cls-4" d="M423.38,353.55c1.18-.79,1.94-2.17,1.92-3.59-.93.2-1.8.68-2.48,1.35-.53.53-.93,1.18-1.18,1.88-1.06.15-2.12.09-3.18-.05.01-.32.04-.64.08-.96-.84-.1-1.69-.24-2.48-.55-.79-.31-1.53-.81-2-1.52-.91.72-1.64,1.66-2.13,2.71-1.54.33-2.99,1.04-4.18,2.07-.48.41-.92.88-1.38,1.31-.32.29-.24.82.15,1.01.65.31,1.35.49,2.07.59.96.14,1.93.2,2.9.16.18.12.35.24.55.34.49.25,1.05.39,1.59.28.12-.02.24-.06.32-.15.15-.18.04-.46-.08-.66-.02-.03-.04-.06-.06-.09.26-.05.51-.12.77-.19.08-.02.17-.06.25-.08.39.2.79.39,1.21.51.53.14,1.11.17,1.62-.04.11-.04.22-.11.28-.21.11-.21-.05-.46-.21-.63-.16-.18-.33-.35-.51-.52.53-.22,1.07-.44,1.6-.65.67.37,1.4.64,2.15.79.26.05.59.07.75-.14.16-.2.09-.49,0-.73-.12-.32-.26-.63-.42-.94.23-.09.46-.17.7-.24.43.51.95.94,1.55,1.24.85.43,1.82.62,2.77.53-.42-1.36-1.56-2.44-2.93-2.83Z"/>
          <path class="cls-4" d="M392.43,351.9c.94-.41,1.65-1.29,1.82-2.3-.69.02-1.36.25-1.93.64-.44.31-.81.72-1.08,1.18-.77-.03-1.51-.21-2.25-.44.05-.23.11-.45.18-.67-.59-.18-1.17-.39-1.69-.71-.52-.32-.98-.77-1.23-1.33-.74.4-1.37.97-1.86,1.65-1.13.04-2.26.36-3.23.93-.39.23-.76.51-1.15.75-.26.17-.28.55-.02.74.42.3.89.52,1.4.69.66.22,1.35.39,2.04.49.11.11.22.22.34.31.32.24.7.41,1.09.4.09,0,.18-.01.24-.07.13-.11.09-.32.03-.48,0-.02-.02-.05-.03-.07.19,0,.38-.02.57-.04.06,0,.12-.02.19-.03.25.19.51.38.79.51.36.17.76.26,1.15.18.08-.02.17-.05.22-.11.11-.13.02-.33-.07-.48-.09-.15-.19-.29-.29-.43.41-.09.81-.17,1.22-.26.43.35.91.63,1.42.84.18.07.41.13.55,0,.14-.12.13-.33.1-.51-.04-.24-.11-.48-.18-.72.17-.03.35-.06.52-.08.24.41.56.79.94,1.08.55.42,1.21.67,1.9.73-.13-1.02-.8-1.93-1.72-2.38Z"/>
          <path class="cls-4" d="M425.95,370.49c.88-.52,1.49-1.47,1.54-2.5-.68.1-1.33.41-1.84.86-.4.36-.72.8-.93,1.3-.77.06-1.53-.03-2.29-.18.02-.23.06-.46.1-.69-.6-.11-1.21-.25-1.76-.51-.56-.26-1.06-.65-1.37-1.18-.69.48-1.25,1.12-1.66,1.85-1.12.17-2.2.61-3.1,1.3-.36.28-.7.59-1.05.88-.24.2-.21.58.06.73.45.25.95.41,1.47.52.68.14,1.38.23,2.08.25.12.1.24.19.38.27.34.2.74.32,1.13.28.09-.01.17-.03.23-.09.12-.12.05-.33-.02-.48-.01-.02-.02-.04-.04-.06.19-.03.37-.06.56-.1.06-.01.12-.03.18-.05.27.16.55.32.85.42.37.13.79.17,1.16.04.08-.03.16-.07.21-.14.09-.15-.01-.33-.12-.46-.11-.14-.22-.27-.34-.4.39-.13.79-.27,1.18-.4.47.29.98.52,1.51.67.19.05.42.08.55-.06.12-.13.09-.35.04-.52-.07-.24-.16-.47-.26-.69.17-.05.34-.1.51-.14.29.38.64.72,1.06.96.59.35,1.28.53,1.97.5-.24-1-1.02-1.82-1.98-2.17Z"/>
          <path class="cls-4" d="M336.29,377.81c.62-.13,1.15-.57,1.38-1.16-.42-.07-.85-.02-1.24.15-.3.13-.58.33-.8.58-.46-.11-.89-.31-1.3-.55.06-.13.12-.26.19-.38-.33-.18-.66-.38-.93-.64-.27-.26-.5-.59-.58-.95-.49.15-.95.41-1.32.76-.69-.12-1.4-.07-2.06.16-.27.09-.52.21-.78.31-.18.07-.24.3-.11.44.21.23.47.42.76.59.37.21.76.4,1.17.55.05.08.11.16.17.23.16.18.37.33.61.38.05.01.11.02.15,0,.09-.05.09-.18.08-.28,0-.02,0-.03,0-.04.11.02.23.04.35.05.04,0,.08,0,.12,0,.13.15.26.29.41.41.19.15.43.25.67.25.05,0,.11,0,.15-.04.08-.07.06-.2.02-.29-.04-.1-.08-.2-.12-.3.26,0,.51,0,.77,0,.22.26.47.49.75.68.1.07.23.13.33.07.1-.05.12-.19.12-.3,0-.15,0-.3-.02-.46.11,0,.22,0,.33.02.09.28.24.54.43.76.28.32.65.55,1.05.67.05-.63-.24-1.26-.74-1.65Z"/>
          <path class="cls-4" d="M357.21,363.73c.6-.2,1.08-.7,1.24-1.31-.42-.02-.85.08-1.22.29-.29.16-.54.39-.73.67-.47-.06-.91-.21-1.35-.4.04-.14.09-.27.15-.4-.35-.14-.7-.3-1-.53s-.56-.53-.68-.88c-.47.2-.89.52-1.23.91-.7-.04-1.4.09-2.03.39-.25.12-.49.27-.74.4-.17.09-.2.32-.06.45.24.21.52.37.82.5.39.17.8.31,1.22.41.06.07.12.15.19.21.18.16.4.29.65.31.05,0,.11,0,.15-.03.09-.06.07-.19.05-.29,0-.01,0-.03-.01-.04.12,0,.23,0,.35,0,.04,0,.08,0,.12,0,.14.13.29.26.46.36.21.12.45.2.7.17.05,0,.11-.02.14-.06.07-.08.03-.2-.01-.29-.05-.1-.1-.19-.16-.28.25-.03.51-.06.76-.09.24.24.52.44.83.59.11.05.24.1.34.03.09-.07.1-.2.09-.31-.01-.15-.04-.3-.07-.45.11,0,.22-.02.33-.02.12.27.3.51.52.71.31.28.71.48,1.12.55-.02-.63-.38-1.23-.92-1.55Z"/>
          <path class="cls-4" d="M439.44,359.62c.52-.36.84-.98.82-1.61-.41.1-.79.31-1.09.62-.23.24-.4.53-.51.84-.47.07-.94.06-1.41,0,0-.14.01-.28.03-.43-.38-.04-.75-.09-1.11-.23-.35-.13-.68-.35-.9-.66-.4.33-.71.75-.92,1.22-.68.16-1.32.49-1.84.95-.21.19-.4.4-.6.59-.14.13-.1.37.07.45.29.13.6.21.92.25.43.05.86.07,1.29.05.08.05.16.1.24.15.22.11.47.16.71.11.05-.01.11-.03.14-.07.07-.08.02-.2-.04-.29,0-.01-.02-.03-.03-.04.11-.03.23-.06.34-.09.04-.01.07-.03.11-.04.17.09.35.17.54.21.24.06.49.07.72-.03.05-.02.1-.05.12-.1.05-.09-.02-.2-.1-.28-.07-.08-.15-.15-.23-.23.23-.1.47-.2.7-.3.3.16.62.27.96.33.12.02.26.03.33-.07.07-.09.04-.22,0-.32-.05-.14-.12-.28-.19-.41.1-.04.2-.08.31-.11.19.22.43.41.69.54.38.19.81.26,1.23.21-.2-.6-.71-1.07-1.32-1.23Z"/>
          <path class="cls-4" d="M398.36,382.41c.92-.44,1.6-1.35,1.74-2.36-.68.05-1.35.3-1.91.71-.43.32-.79.74-1.04,1.22-.77,0-1.52-.16-2.26-.37.04-.23.09-.45.16-.67-.59-.16-1.18-.35-1.71-.65-.53-.3-1.01-.74-1.27-1.29-.72.42-1.34,1.01-1.8,1.71-1.13.07-2.24.43-3.2,1.04-.38.25-.74.53-1.12.79-.26.18-.26.56,0,.74.43.29.91.49,1.42.64.67.2,1.36.34,2.05.42.11.1.23.21.35.3.32.23.71.38,1.1.37.09,0,.18-.02.24-.07.13-.11.08-.32.01-.48,0-.02-.02-.04-.03-.07.19-.01.38-.03.57-.06.06,0,.12-.02.19-.03.26.18.52.36.81.49.36.16.77.23,1.16.14.08-.02.17-.05.22-.12.1-.14.01-.33-.08-.47-.1-.14-.2-.29-.31-.42.4-.1.81-.2,1.21-.3.44.33.93.6,1.45.79.18.07.41.11.55-.02.13-.12.12-.34.08-.52-.05-.24-.12-.48-.2-.71.17-.04.35-.07.52-.1.25.41.58.77.97,1.04.56.4,1.24.63,1.92.66-.16-1.01-.86-1.9-1.8-2.32Z"/>
        </g>
        <path class="cls-6" d="M302.14,400c-6.73.07-13.46,1.38-19.65,4.01-6.81,2.9-12.95,7.43-17.53,13.24-.59.75-1.21,1.56-2.11,1.9-.57.22-1.2.22-1.78.4-.58.19-1.15.66-1.12,1.27.5.77,1.48,1.22,2.38,1.37.9.15,1.84.18,2.67.56,1.08.5,1.81,1.52,2.6,2.41,2.09,2.35,4.97,3.98,8.06,4.58,1.94.37,3.97.35,5.82,1.04,1.05.39,2.01,1,3.04,1.47,1.9.86,4.05,1.46,6.13,1.21-1.03-1.02-2.01-2.11-2.68-3.4-.67-1.29-1-2.79-.69-4.2.23-1.04.8-2.02,1.28-3,1.21.08,2.42.27,3.59.58.36.1.72.22,1.07.37.6.26,1.15.57,1.67.91.43.28.97-.13.8-.61-.36-1.03-.62-2.09-.62-3.17,0-.65.1-1.29.25-1.92.46-1.99,1.43-3.89,2.78-5.45.33-.38.01-.97-.48-.88-1.81.31-3.52,1.19-5.12,2.13-1.42.84-2.83,1.74-4.33,2.4-.17-.26-.33-.51-.48-.77-.82-1.43-1.21-3.12-.95-4.74.16-1,.57-1.95,1.05-2.84.68-1.25,1.55-2.41,2.67-3.28.88-.68,1.9-1.15,2.91-1.62,2.86-1.33,5.77-2.8,8.82-3.57.23-.06.18-.41-.06-.4Z"/>
        <path class="cls-6" d="M678.91,317.88c5.29.06,10.58,1.08,15.44,3.15,5.35,2.28,10.17,5.84,13.77,10.4.47.59.95,1.23,1.65,1.5.45.17.94.17,1.4.32.46.15.91.52.88,1-.39.6-1.16.96-1.87,1.08-.71.12-1.45.14-2.1.44-.85.39-1.42,1.2-2.04,1.9-1.64,1.85-3.91,3.13-6.33,3.6-1.52.29-3.12.28-4.57.82-.83.31-1.58.79-2.39,1.15-1.49.67-3.19,1.15-4.81.95.81-.8,1.58-1.66,2.1-2.67.52-1.01.78-2.19.54-3.3-.18-.82-.63-1.59-1.01-2.36-.95.06-1.9.21-2.82.45-.29.07-.57.17-.84.29-.47.21-.9.45-1.31.72-.33.22-.76-.1-.63-.48.28-.81.49-1.64.48-2.49,0-.51-.08-1.01-.19-1.51-.36-1.57-1.13-3.06-2.18-4.28-.26-.3-.01-.76.38-.69,1.42.25,2.77.94,4.02,1.67,1.12.66,2.22,1.37,3.4,1.89.13-.2.26-.4.38-.61.64-1.12.95-2.45.74-3.73-.13-.79-.45-1.53-.83-2.23-.54-.98-1.21-1.9-2.1-2.58-.69-.53-1.49-.91-2.29-1.27-2.25-1.05-4.53-2.2-6.93-2.81-.18-.05-.14-.32.04-.32Z"/>
        <path class="cls-4" d="M241.53,316.14c-1.86-1.86-4.03-3.39-6.28-4.74-.51-.31-1.04-.61-1.62-.76-1.25-.31-2.56.16-3.7.77-.69.38-1.36.81-2.06,1.17-.35-2.36-1.35-4.71-2.88-6.52.08-.07.15-.13.23-.2.53-.47,1.08-.95,1.75-1.16.78-.24,1.65-.09,2.4-.41.39-.16.72-.45,1-.77.72-.83,1.12-1.93,1.1-3.03-.01-.54-.09-2.42-.99-3.3-.93-.9-2.69-.8-3.25-.78-1.1.03-2.18.49-2.96,1.26-.3.3-.57.64-.71,1.04-.27.77-.08,1.63-.28,2.42-.17.68-.62,1.26-1.06,1.81-.14.18-.29.36-.43.54-1.36-.71-2.87-1.14-4.42-1.31.37-.82.86-1.6,1.27-2.4.59-1.15,1.03-2.47.69-3.71-.16-.58-.47-1.1-.79-1.6-1.41-2.22-2.98-4.36-4.88-6.17s-4.15-3.31-6.66-4.1c-1.23-.39-2.59-.61-3.81-.17-.2.07-.41.17-.52.36-.22.37.06.82.33,1.15,1.93,2.3,4.37,4.15,6.16,6.56.53.71,1,1.47,1.44,2.24,1.42,2.46,2.59,5.14,3.01,7.93-.13.02-.27.04-.4.06-3.83.71-7.28,2.83-10.16,5.44-2,1.81-3.79,3.9-5.02,6.31s-1.87,5.15-1.54,7.84c.06.53.16,1.05.28,1.57-.85.09-1.7.13-2.55.06-2.47-.21-4.78-1.34-7.24-1.63-.47-.06-.96-.08-1.41.05-.46.13-.88.43-1.06.87-.27.67.14,1.46.72,1.89.46.35,1.07.58,1.31,1.11.26.58,0,1.33.37,1.84.24.32.66.44,1.05.48.39.05.8.04,1.17.2.51.22.85.71,1.29,1.04.71.52,1.66.61,2.52.45s1.67-.53,2.5-.84c.79-.3,1.6-.55,2.42-.75.2,1.62.24,3.44-.6,5.03-.22.42.14.9.6.79,2.04-.51,4.18-.46,6.36-.31-.12.73-.27,1.46-.46,2.17-.23.85-.52,1.69-.59,2.57-.07.88.11,1.82.7,2.47.37.41.9.7,1.17,1.18.19.35.23.76.31,1.14.08.39.24.79.58,1,.55.32,1.27-.02,1.87.19.55.19.84.76,1.23,1.19.49.53,1.31.86,1.95.53.42-.22.68-.67.77-1.14.08-.47,0-.95-.09-1.41-.54-2.42-1.89-4.61-2.34-7.04-.15-.82-.2-1.65-.2-2.48,1.95.08,3.87-.01,5.7-.59,3.35-1.07,6.01-3.61,8.34-6.25,1.47-1.67,2.87-3.45,3.65-5.53.5-1.32.72-2.73.92-4.13.05-.37.1-.75.14-1.12,2.69.4,5.28,1.48,7.68,2.79.78.43,1.55.88,2.27,1.39,2.45,1.73,4.36,4.13,6.7,6.01.33.27.8.54,1.16.31.18-.11.28-.32.35-.52.42-1.23.17-2.58-.25-3.8-.85-2.49-2.39-4.7-4.25-6.57Z"/>
        <path class="cls-7" d="M582.87,443.42c-1.65-6.05-7.54-10.49-13.78-11.07-6.24-.58-12.55,2.41-16.61,7.19-3.03,3.56-4.93,8.24-4.48,12.89.47,4.92,3.44,9.23,6.74,12.92,3.29,3.68,7.04,7.02,9.64,11.22,1.03,1.67,1.9,3.54,1.85,5.51l14.8-5.73c-1.15-4.46-.62-9.18.24-13.71.86-4.53,2.04-9.03,2.17-13.63.05-1.87-.07-3.77-.57-5.58Z"/>
        <g>
          <g>
            <path class="cls-7" d="M555.25,474.35c-4.07-2.77-8.04-6.19-9.61-10.86-2.12-6.3.49-13.85-2.97-19.53-1.42-2.33-3.74-4.03-6.29-5.02-3.78-1.46-8.29-1.35-11.67.9-2.21,1.47-3.78,3.91-4.21,6.5-.23,1.34,1.39,2.2,2.34,1.21.71-.74,1.5-1.42,2.24-2,1.61-1.28,3.71-2.02,5.76-1.76,3.03.38,5.46,2.89,6.62,5.71,1.15,2.83,1.25,5.96,1.27,9.02.02,3.05-.02,6.17.89,9.09,1.45,4.65,5.18,8.3,9.32,10.86l14.09-.29c-.35-.09-.7-.18-1.05-.29-2.41-.78-4.61-2.11-6.71-3.54Z"/>
            <path class="cls-7" d="M563.01,478.18c2.12.52,4.37.57,6.43-.13l-6.43.13Z"/>
          </g>
          <path class="cls-7" d="M595.84,468.19c-.93-2.97-5.5-24.73-5-27.8.61-3.71,2.4-7.42,5.92-9.12,2.43-1.18,5.33-1.03,7.41.7,1.71,1.42,2.21,3.31,2.38,5.43.09,1.08,1.54,1.4,2.05.44,1.39-2.6,1.78-5.63-.19-8.64-1.01-1.54-2.46-2.76-4.15-3.49-4.13-1.79-8.85-.75-12.64,1.49-4.92,2.91-8.65,8.14-8.84,13.85-.11,3.46,1.03,6.82,1.97,10.15,1.86,6.59,2.97,13.68,1,20.23-.83,2.77-2.43,5.59-5.14,6.61"/>
          <g>
            <path class="cls-7" d="M564.74,475.74l.89,2.9c-.12-1.03-.44-2-.89-2.9Z"/>
            <path class="cls-7" d="M562.54,468.58c-1.59-2.92-3.9-5.44-6.67-7.27-1.49-.99-3.12-1.79-4.45-2.99-2.46-2.21-3.67-5.74-3.07-8.99.58-3.16,2.65-5.79,4.55-8.38s3.75-5.47,3.76-8.68c.01-2.88-1.48-5.56-3.24-7.84-.88-1.14-1.86-2.24-3.06-3.05-2.5-1.69-5.82-1.96-8.69-1.01-1.27.42-2.39,1.04-3.39,1.83-.86.67-.27,2.04.81,1.91.48-.06.96-.07,1.43-.06,1.98.08,3.9.74,5.65,1.67,1.19.63,2.35,1.42,3.14,2.51,1.01,1.4,1.35,3.21,1.23,4.93-.29,4.4-3.19,8.13-5.7,11.75-2.52,3.63-4.86,7.95-3.85,12.25.87,3.71,4.07,6.43,7.45,8.17,3.39,1.74,7.11,2.77,10.43,4.64,2.41,1.36,4.66,3.33,5.88,5.76l-2.2-7.16Z"/>
          </g>
          <path class="cls-7" d="M565.79,442.94c1.51-1.15,2.36-3.11,2.18-5.01-.18-1.83-1.24-3.45-2.35-4.92-1.11-1.47-2.34-2.9-2.95-4.64-.75-2.13-.47-4.59.69-6.53s3.16-3.34,5.37-3.83c2.57-.57,5.47.16,7.2,2.14,1.22,1.39,1.71,3.4,1.32,5.18-.14.63-1.05.69-1.26.07-.2-.6-.5-1.18-.84-1.71-.71-1.11-1.88-1.94-3.18-2.12-1.3-.18-2.71.36-3.47,1.43-.79,1.12-.8,2.64-.36,3.93s1.29,2.4,2.14,3.47c.85,1.07,1.74,2.14,2.29,3.39,1.17,2.66.53,6.01-1.53,8.07"/>
        </g>
        <path class="cls-4" d="M525.32,318.77c.87-.45,1.65-1.08,2.29-1.83.94-1.11,1.54-2.46,2.45-3.59,2.29-2.84,6.15-3.82,9.08-5.99,1.33-.98,2.45-2.21,3.71-3.28,1.26-1.07,2.71-2.01,4.34-2.25s3.47.35,4.32,1.77c.38.64.55,1.41,1.03,1.98.82.98,2.29,1.09,3.57.94,2.09-.25,4.12-.98,6.22-1.1s4.47.6,5.46,2.46c.82,1.54.49,3.45-.17,5.07,1.9,1.08,4.25,1.69,6.4,1.29,2.15-.4,4.14-1.58,5.53-3.26,2.47,1.79,3.74,4.83,3.59,7.87s-1.92,5.96-4.55,7.49c-2.26-2.54-5.88-3.8-9.22-3.2.11,1.33,1,2.43.88,3.76-.1,1.17-1.25,1.96-2.34,2.38-3.27,1.28-7.14.86-10.06-1.08-3.3.69-6.94,1.16-10.3.98-.24.54-.27,1.37-.43,1.94s-.52,1.16-1.1,1.31c-.51.13-1.03-.11-1.49-.36-1.74-.95-3.33-2.16-4.71-3.59-3.34-.36-6.5-1.79-8.97-4.08-1.61-1.5-2.97-3.38-4.99-4.25-.33-.14-.7-.28-.88-.58-.18-.31-.01-.85.35-.8Z"/>
        <path class="cls-4" d="M164.57,264.99c-.66-.34-1.25-.82-1.73-1.38-.71-.84-1.16-1.86-1.85-2.71-1.73-2.14-4.65-2.89-6.86-4.53-1-.74-1.85-1.67-2.81-2.48-.95-.81-2.05-1.52-3.28-1.7s-2.63.27-3.27,1.34c-.29.48-.42,1.07-.78,1.5-.62.74-1.73.83-2.7.71-1.58-.19-3.11-.74-4.7-.83-1.59-.08-3.38.45-4.13,1.86-.62,1.16-.37,2.61.13,3.83-1.44.81-3.21,1.27-4.84.97-1.62-.3-3.13-1.19-4.18-2.47-1.86,1.35-2.82,3.65-2.71,5.95s1.45,4.5,3.44,5.66c1.71-1.92,4.44-2.87,6.97-2.41-.08,1.01-.75,1.83-.67,2.84.08.89.94,1.48,1.77,1.8,2.47.96,5.4.65,7.6-.82,2.49.52,5.24.88,7.79.74.18.41.2,1.03.33,1.47.12.43.39.87.83.99.38.1.78-.08,1.13-.27,1.31-.72,2.52-1.63,3.56-2.71,2.53-.27,4.92-1.36,6.78-3.09,1.22-1.13,2.25-2.55,3.77-3.21.25-.11.53-.21.67-.44.14-.23,0-.64-.26-.61Z"/>
        <path class="cls-2" d="M620.04,321.51c-.22-.38-.48-.75-.74-1.12-.47-.67-.92-1.3-1.1-2.02-.19-.77-.07-1.59.06-2.46.14-.96.29-1.96.01-2.95-.23-.83-.73-1.52-1.21-2.19-.51-.7-.99-1.37-1.11-2.13-.12-.77.14-1.55.42-2.38.19-.57.39-1.16.47-1.79.22-1.67-.46-3.3-.98-4.38-.17-.36-.36-.71-.54-1.06-.48-.92-.94-1.78-1.21-2.72-.17-.59-.23-1.15-.21-1.69.72-.39,1.13-1.2.99-2.03-.57-3.32-2.47-6.33-5.08-7.89-3.02-1.8-6.88-1.56-9.72.6-2.45,1.86-4.07,5.1-4.33,8.47-.07.87.45,1.66,1.25,1.96-.27.88-.3,1.9-.07,2.97.23,1.05.65,2.03,1.07,2.99.16.36.31.72.46,1.08.4,1,.89,2.48.61,3.87-.11.52-.32,1.03-.55,1.56-.37.88-.75,1.79-.67,2.81.08,1.01.59,1.84,1.09,2.65.4.65.78,1.27.92,1.94.16.8-.03,1.63-.22,2.52-.21.92-.42,1.87-.25,2.84.16.92.62,1.69,1.08,2.44.21.36.43.71.61,1.09.75,1.57.86,3.57.29,5.63-.49,1.8-1.39,3.45-2.58,5.37-.15.24-.07.54.16.69.08.05.17.08.26.08.17,0,.33-.08.42-.24,1.07-1.72,2.14-3.6,2.7-5.63.63-2.29.5-4.54-.35-6.33-.19-.4-.42-.79-.65-1.17-.42-.7-.82-1.36-.95-2.1-.14-.78.05-1.59.24-2.45.21-.95.43-1.93.23-2.94-.17-.85-.62-1.57-1.05-2.27-.45-.74-.88-1.44-.95-2.21-.06-.78.26-1.54.6-2.34.23-.56.47-1.13.6-1.75.34-1.65-.21-3.33-.66-4.44-.15-.37-.31-.74-.47-1.11-.41-.95-.8-1.84-1-2.8-.2-.93-.15-1.8.09-2.53.56.12,1.13.22,1.7.3-.02.33,0,.66.12.99.46,1.26,2.11,1.86,2.4,3.17.33,1.5-1.34,2.88-1.08,4.39.19,1.1,1.31,1.79,1.75,2.82.91,2.1-1.32,4.44-.82,6.66.41,1.81,2.43,2.81,3.14,4.52.57,1.36.22,2.91-.24,4.31-.46,1.4-1.03,2.83-.88,4.29.49-1.36,1.35-2.54,2.11-3.77.76-1.23,1.37-2.66,1.12-4.09-.45-2.54-3.47-4.22-3.41-6.8.04-1.89,1.78-3.67,1.14-5.44-.43-1.19-1.85-1.93-1.96-3.19-.1-1.1.84-2.03.96-3.12.17-1.59-1.37-2.79-2.01-4.26-.04-.09-.06-.18-.09-.27,1.2.06,2.41.06,3.62-.03-.1.7-.08,1.47.09,2.26.23,1.05.65,2.04,1.07,2.99.15.36.31.71.45,1.07.4,1,.89,2.48.61,3.87-.11.52-.32,1.03-.55,1.56-.37.88-.75,1.79-.67,2.81.08,1.01.59,1.84,1.09,2.65.4.65.78,1.27.92,1.94.16.8-.03,1.64-.22,2.52-.21.92-.42,1.87-.25,2.84.16.92.62,1.69,1.08,2.44.21.36.43.71.61,1.09.75,1.57.86,3.57.29,5.63-.5,1.8-1.39,3.45-2.58,5.37-.15.23-.07.54.16.69.08.05.17.08.26.08.17,0,.33-.08.42-.24,1.07-1.72,2.14-3.6,2.7-5.63.63-2.29.5-4.54-.35-6.33-.19-.4-.42-.79-.66-1.17-.42-.7-.82-1.36-.95-2.09-.13-.78.05-1.59.24-2.45.21-.95.43-1.93.23-2.94-.17-.85-.62-1.57-1.05-2.27-.46-.74-.88-1.44-.95-2.21-.06-.78.26-1.54.59-2.34.23-.56.47-1.13.6-1.75.34-1.65-.21-3.33-.66-4.45-.15-.37-.31-.74-.46-1.1-.41-.95-.8-1.85-1.01-2.81-.17-.78-.17-1.51-.03-2.16.53-.06,1.06-.13,1.59-.22.02.16.05.32.11.47.46,1.26,2.11,1.86,2.4,3.17.33,1.5-1.34,2.88-1.08,4.39.19,1.1,1.31,1.79,1.75,2.82.91,2.1-1.32,4.44-.82,6.66.41,1.81,2.43,2.81,3.14,4.52.57,1.36.22,2.91-.24,4.31-.46,1.4-1.03,2.83-.88,4.29.49-1.36,1.35-2.54,2.11-3.77.76-1.23,1.37-2.66,1.12-4.09-.45-2.54-3.47-4.22-3.41-6.8.04-1.89,1.78-3.67,1.14-5.44-.43-1.19-1.85-1.93-1.96-3.19-.1-1.1.84-2.03.96-3.12.17-1.59-1.37-2.79-2.01-4.26-.06-.13-.09-.27-.14-.41.84-.2,1.68-.43,2.5-.7.02.52.1,1.06.27,1.61.3,1.04.8,1.99,1.29,2.91.18.34.36.69.53,1.04.47.96,1.08,2.41.89,3.81-.07.53-.24,1.05-.43,1.6-.3.91-.62,1.84-.46,2.85.16,1,.73,1.79,1.29,2.56.45.62.87,1.21,1.06,1.87.22.78.1,1.63-.04,2.53-.14.93-.28,1.89-.04,2.86.23.9.75,1.64,1.25,2.35.24.34.48.68.69,1.04.87,1.51,1.12,3.5.71,5.6-.36,1.84-1.13,3.54-2.18,5.54-.13.25-.03.55.21.68.07.04.15.06.23.06.18,0,.35-.1.44-.27.94-1.8,1.87-3.75,2.27-5.81.46-2.34.17-4.57-.82-6.29Z"/>
        <path class="cls-2" d="M33.6,226.57c-.16-2.02-1.13-3.96-2.6-5.08-1.71-1.29-4.02-1.44-5.83-.36-1.56.93-2.7,2.74-3.04,4.73-.08.46.13.89.5,1.14.02.44-.07.84-.13,1.05-.16.55-.43,1.07-.72,1.62-.11.21-.22.43-.33.64-.32.66-.74,1.66-.6,2.69.05.38.17.74.29,1.09.16.49.32.94.25,1.38-.07.43-.35.82-.65,1.23-.29.41-.6.83-.74,1.34-.17.61-.08,1.22,0,1.81.08.51.15,1,.04,1.44-.1.41-.37.78-.64,1.18-.16.22-.31.44-.45.68-.6,1.05-.78,2.42-.5,3.84.25,1.25.81,2.43,1.37,3.51.07.14.21.21.35.21.06,0,.13-.01.18-.05.2-.1.27-.34.17-.54-.62-1.19-1.08-2.21-1.3-3.3-.24-1.23-.1-2.4.41-3.29.12-.21.27-.41.41-.62.31-.44.63-.89.77-1.44.15-.6.06-1.18-.02-1.75-.08-.53-.15-1.03-.02-1.48.11-.38.36-.73.62-1.09.34-.47.69-.96.79-1.58.1-.63-.09-1.2-.28-1.76-.11-.33-.21-.64-.25-.94-.11-.82.25-1.66.53-2.23.1-.21.21-.41.32-.62.29-.56.59-1.13.78-1.76.1-.33.14-.65.15-.97.47.15.94.28,1.41.39-.03.08-.05.16-.08.24-.38.88-1.31,1.6-1.2,2.55.07.66.64,1.21.58,1.87-.07.76-.92,1.2-1.18,1.91-.39,1.07.66,2.13.68,3.26.03,1.55-1.78,2.56-2.05,4.08-.15.85.22,1.71.67,2.45.46.74.97,1.45,1.27,2.26.09-.88-.25-1.73-.53-2.57s-.49-1.77-.15-2.59c.43-1.03,1.64-1.63,1.89-2.71.3-1.34-1.04-2.74-.49-4,.27-.61.94-1.03,1.05-1.69.15-.91-.85-1.73-.65-2.63.17-.79,1.16-1.14,1.44-1.9.03-.09.04-.19.05-.29.29.05.58.09.87.12.11.51.04,1.03-.01,1.28-.12.56-.35,1.1-.6,1.66-.1.22-.19.44-.28.66-.27.68-.61,1.71-.4,2.72.08.38.23.73.37,1.07.2.47.38.92.35,1.36-.04.44-.29.85-.55,1.28-.26.43-.53.87-.64,1.39-.13.63,0,1.22.14,1.8.11.51.22.98.14,1.43-.07.42-.31.81-.55,1.22-.14.23-.28.47-.4.71-.52,1.09-.6,2.47-.22,3.87.34,1.23.98,2.36,1.63,3.4.08.12.21.19.34.19.07,0,.15-.02.21-.06.19-.12.24-.36.13-.55-.71-1.14-1.24-2.12-1.54-3.19-.33-1.21-.27-2.39.17-3.31.11-.22.23-.43.36-.64.27-.46.56-.93.66-1.5.1-.61-.02-1.18-.15-1.74-.12-.52-.23-1.01-.13-1.47.08-.39.3-.75.54-1.13.3-.49.62-1.01.67-1.63.05-.63-.18-1.19-.41-1.73-.13-.32-.26-.62-.32-.92-.17-.81.12-1.68.36-2.26.09-.22.18-.43.27-.64.25-.58.51-1.17.65-1.81.1-.48.11-.94.05-1.37.69.05,1.39.05,2.08.01-.02.05-.03.11-.05.16-.38.88-1.31,1.6-1.2,2.55.07.66.64,1.21.58,1.87-.07.76-.92,1.2-1.18,1.91-.39,1.07.66,2.13.68,3.26.03,1.55-1.78,2.56-2.05,4.08-.15.85.22,1.71.67,2.45.46.74.97,1.45,1.27,2.26.09-.88-.25-1.73-.53-2.57s-.49-1.77-.15-2.59c.43-1.03,1.64-1.63,1.89-2.71.3-1.34-1.04-2.74-.49-4,.27-.61.94-1.03,1.05-1.69.15-.91-.85-1.73-.65-2.63.17-.79,1.16-1.14,1.44-1.9.07-.19.08-.39.06-.59.32-.04.63-.1.94-.17.19.58.1,1.19.04,1.48-.12.56-.35,1.1-.6,1.66-.1.22-.19.44-.28.66-.27.68-.61,1.71-.4,2.72.08.38.23.73.37,1.07.2.47.38.92.35,1.36-.04.44-.29.85-.55,1.28-.26.43-.53.87-.64,1.39-.13.63,0,1.22.14,1.8.11.51.22.98.14,1.43-.07.42-.31.81-.55,1.22-.14.23-.28.47-.4.71-.52,1.09-.6,2.47-.22,3.87.34,1.23.98,2.36,1.63,3.4.08.12.21.19.34.19.07,0,.15-.02.21-.06.19-.12.24-.36.13-.55-.71-1.14-1.24-2.12-1.54-3.19-.33-1.21-.27-2.39.17-3.31.11-.22.23-.43.36-.64.27-.46.56-.93.66-1.5.1-.61-.02-1.18-.15-1.74-.12-.52-.23-1.01-.13-1.47.08-.39.3-.75.54-1.13.3-.49.62-1.01.67-1.63.05-.63-.18-1.19-.41-1.73-.13-.32-.26-.62-.32-.92-.17-.8.12-1.68.36-2.26.09-.22.18-.43.27-.64.25-.58.51-1.17.65-1.81.14-.67.11-1.3-.07-1.85.43-.2.72-.64.68-1.13Z"/>
        <path class="cls-4" d="M562.24,349.22c-.19-2.54-1.41-4.96-3.25-6.36-2.14-1.62-5.03-1.8-7.3-.45-1.96,1.16-3.39,3.43-3.81,5.92-.1.57.17,1.12.63,1.43.03.55-.08,1.05-.16,1.32-.2.69-.54,1.34-.9,2.02-.14.27-.28.53-.41.8-.4.83-.92,2.07-.75,3.36.06.48.21.93.36,1.36.2.61.4,1.18.31,1.73-.08.54-.44,1.03-.81,1.54-.37.51-.75,1.04-.93,1.68-.22.77-.1,1.53,0,2.27.09.64.18,1.25.04,1.8-.13.52-.46.98-.81,1.48-.2.28-.39.56-.56.85-.76,1.32-.98,3.03-.63,4.81.31,1.58,1.01,3.04,1.72,4.4.09.17.26.27.44.27.08,0,.16-.02.23-.06.24-.13.34-.43.21-.67-.67-1.29-1.34-2.68-1.62-4.13-.3-1.54-.12-3.01.52-4.12.15-.27.33-.52.51-.77.39-.55.79-1.11.96-1.81.19-.75.08-1.48-.03-2.19-.1-.66-.19-1.29-.03-1.85.13-.48.45-.91.78-1.37.42-.59.87-1.2.99-1.98.12-.79-.12-1.5-.35-2.2-.14-.41-.27-.79-.32-1.18-.13-1.02.31-2.08.66-2.79.13-.26.26-.52.4-.78.37-.7.74-1.42.97-2.2.12-.41.17-.82.19-1.21.58.19,1.17.35,1.77.49-.03.1-.06.21-.1.31-.48,1.1-1.64,2-1.51,3.2.09.82.8,1.52.72,2.34-.09.95-1.15,1.5-1.47,2.4-.48,1.33.83,2.67.86,4.09.04,1.94-2.23,3.2-2.56,5.11-.19,1.07.27,2.15.84,3.07.57.92,1.22,1.81,1.59,2.83.11-1.1-.32-2.17-.66-3.22s-.61-2.22-.18-3.24c.54-1.28,2.06-2.04,2.36-3.39.38-1.67-1.3-3.43-.62-5,.33-.77,1.18-1.29,1.31-2.11.19-1.14-1.06-2.17-.81-3.3.22-.98,1.45-1.43,1.8-2.38.04-.12.05-.24.06-.36.36.06.72.11,1.08.15.14.64.05,1.28-.02,1.61-.15.71-.44,1.38-.75,2.08-.12.28-.24.55-.35.83-.34.85-.77,2.14-.5,3.41.1.47.28.91.46,1.34.25.59.48,1.15.44,1.7-.04.55-.36,1.06-.69,1.6-.33.53-.67,1.09-.8,1.74-.16.78,0,1.53.17,2.26.14.63.28,1.23.18,1.79-.09.53-.38,1.01-.7,1.53-.18.29-.35.59-.5.89-.66,1.37-.75,3.09-.27,4.84.42,1.54,1.23,2.96,2.04,4.26.09.15.26.24.42.24.09,0,.18-.02.26-.08.23-.15.31-.45.16-.69-.89-1.43-1.56-2.66-1.93-4-.42-1.52-.34-2.99.21-4.14.13-.28.29-.54.45-.81.34-.57.7-1.16.82-1.88.13-.76-.03-1.48-.19-2.18-.15-.65-.28-1.27-.17-1.84.1-.48.38-.94.67-1.42.38-.62.77-1.26.84-2.05.06-.79-.23-1.49-.51-2.17-.17-.4-.32-.77-.4-1.15-.21-1.01.16-2.1.45-2.83.11-.27.22-.54.34-.8.31-.72.64-1.47.81-2.27.13-.6.14-1.18.06-1.71.87.06,1.74.06,2.6.01-.02.07-.04.13-.07.2-.48,1.1-1.64,2-1.51,3.2.09.82.8,1.52.72,2.34-.09.95-1.15,1.5-1.47,2.4-.48,1.33.83,2.67.86,4.09.04,1.94-2.23,3.2-2.56,5.11-.19,1.07.27,2.15.84,3.07s1.22,1.81,1.59,2.83c.11-1.1-.32-2.17-.66-3.22-.35-1.05-.61-2.22-.18-3.24.54-1.28,2.06-2.04,2.36-3.39.37-1.67-1.3-3.43-.62-5,.33-.77,1.18-1.29,1.31-2.11.19-1.14-1.06-2.17-.81-3.3.22-.98,1.45-1.43,1.8-2.38.09-.24.1-.49.08-.74.4-.05.79-.13,1.18-.21.23.72.13,1.49.05,1.85-.15.71-.44,1.38-.75,2.08-.12.28-.24.55-.35.83-.34.85-.77,2.14-.5,3.41.1.47.28.91.46,1.33.25.59.48,1.15.44,1.7-.04.55-.36,1.06-.69,1.6-.33.53-.67,1.09-.8,1.74-.16.78,0,1.53.17,2.26.14.63.28,1.23.18,1.79-.09.53-.38,1.01-.7,1.53-.18.29-.35.59-.5.89-.66,1.37-.75,3.09-.27,4.84.42,1.54,1.23,2.96,2.04,4.26.09.15.26.24.42.24.09,0,.18-.02.26-.08.23-.15.31-.45.16-.69-.89-1.43-1.56-2.66-1.93-4-.42-1.52-.34-2.99.21-4.14.13-.28.29-.54.45-.81.34-.57.7-1.16.82-1.88.13-.76-.03-1.48-.19-2.18-.15-.65-.28-1.27-.17-1.84.1-.48.38-.94.67-1.42.38-.62.77-1.26.84-2.05.06-.79-.23-1.49-.51-2.17-.17-.4-.32-.77-.4-1.15-.21-1.01.16-2.1.45-2.83.11-.27.22-.54.34-.8.31-.72.64-1.47.81-2.27.18-.84.13-1.62-.08-2.31.54-.25.9-.8.85-1.41Z"/>
      </g>
      <g>
        <path class="cls-1" d="M434.57,412.53c0,1.43-1.16,2.58-2.58,2.58s-2.58-1.16-2.58-2.58,1.16-2.58,2.58-2.58,2.58,1.16,2.58,2.58Z"/>
        <path class="cls-1" d="M437.15,392.68c0,1.43-1.16,2.58-2.58,2.58s-2.58-1.16-2.58-2.58,1.16-2.58,2.58-2.58,2.58,1.16,2.58,2.58Z"/>
        <path class="cls-1" d="M441.22,368.58c0,1.43-1.16,2.58-2.58,2.58s-2.58-1.16-2.58-2.58,1.16-2.58,2.58-2.58,2.58,1.16,2.58,2.58Z"/>
        <circle class="cls-1" cx="438.78" cy="406.04" r="1.83"/>
        <path class="cls-1" d="M427.63,383.8c0,1.01-.82,1.83-1.83,1.83s-1.83-.82-1.83-1.83.82-1.83,1.83-1.83,1.83.82,1.83,1.83Z"/>
        <path class="cls-1" d="M427.94,400.86c0,1.01-.82,1.83-1.83,1.83s-1.83-.82-1.83-1.83.82-1.83,1.83-1.83,1.83.82,1.83,1.83Z"/>
        <path class="cls-1" d="M439.54,418.95c0,.71-.58,1.29-1.29,1.29s-1.29-.58-1.29-1.29.58-1.29,1.29-1.29,1.29.58,1.29,1.29Z"/>
        <path class="cls-1" d="M445.74,375.58c0,.71-.58,1.29-1.29,1.29s-1.29-.58-1.29-1.29.58-1.29,1.29-1.29,1.29.58,1.29,1.29Z"/>
        <path class="cls-1" d="M425.58,362.29c0,.71-.58,1.29-1.29,1.29s-1.29-.58-1.29-1.29.58-1.29,1.29-1.29,1.29.58,1.29,1.29Z"/>
        <circle class="cls-1" cx="434.23" cy="380.14" r="1.83"/>
      </g>
      <g>
        <path class="cls-1" d="M75.35,292.03c0,1.43,1.16,2.58,2.58,2.58s2.58-1.16,2.58-2.58-1.16-2.58-2.58-2.58-2.58,1.16-2.58,2.58Z"/>
        <path class="cls-1" d="M72.76,272.18c0,1.43,1.16,2.58,2.58,2.58s2.58-1.16,2.58-2.58-1.16-2.58-2.58-2.58-2.58,1.16-2.58,2.58Z"/>
        <path class="cls-1" d="M68.7,248.08c0,1.43,1.16,2.58,2.58,2.58s2.58-1.16,2.58-2.58-1.16-2.58-2.58-2.58-2.58,1.16-2.58,2.58Z"/>
        <circle class="cls-1" cx="71.13" cy="285.54" r="1.83"/>
        <circle class="cls-1" cx="84.11" cy="263.29" r="1.83"/>
        <path class="cls-1" d="M81.97,280.36c0,1.01.82,1.83,1.83,1.83s1.83-.82,1.83-1.83-.82-1.83-1.83-1.83-1.83.82-1.83,1.83Z"/>
        <path class="cls-1" d="M70.37,298.45c0,.71.58,1.29,1.29,1.29s1.29-.58,1.29-1.29-.58-1.29-1.29-1.29-1.29.58-1.29,1.29Z"/>
        <circle class="cls-1" cx="65.46" cy="255.08" r="1.29"/>
        <path class="cls-1" d="M84.33,241.79c0,.71.58,1.29,1.29,1.29s1.29-.58,1.29-1.29-.58-1.29-1.29-1.29-1.29.58-1.29,1.29Z"/>
        <circle class="cls-1" cx="75.69" cy="259.64" r="1.83"/>
      </g>
      <g>
        <circle class="cls-1" cx="664.95" cy="387.68" r="2.54"/>
        <circle class="cls-1" cx="674.91" cy="377.53" r="2.54"/>
        <path class="cls-1" d="M678.72,357.46c0,1.4-1.14,2.54-2.54,2.54s-2.54-1.14-2.54-2.54,1.14-2.54,2.54-2.54,2.54,1.14,2.54,2.54Z"/>
        <circle class="cls-1" cx="673.65" cy="334.31" r="2.54"/>
        <path class="cls-1" d="M669.28,366.69c0,.99-.8,1.79-1.79,1.79s-1.79-.8-1.79-1.79.8-1.79,1.79-1.79,1.79.8,1.79,1.79Z"/>
        <path class="cls-1" d="M661.41,357.46c0,.99-.8,1.79-1.79,1.79s-1.79-.8-1.79-1.79.8-1.79,1.79-1.79,1.79.8,1.79,1.79Z"/>
        <path class="cls-1" d="M660.45,375.73c0,.99-.8,1.79-1.79,1.79s-1.79-.8-1.79-1.79.8-1.79,1.79-1.79,1.79.8,1.79,1.79Z"/>
        <path class="cls-1" d="M674.91,392.77c0,.7-.57,1.27-1.27,1.27s-1.27-.57-1.27-1.27.57-1.27,1.27-1.27,1.27.57,1.27,1.27Z"/>
        <path class="cls-1" d="M671.82,349.81c0,.7-.57,1.27-1.27,1.27s-1.27-.57-1.27-1.27.57-1.27,1.27-1.27,1.27.57,1.27,1.27Z"/>
        <path class="cls-1" d="M663.68,328.91c0,.7-.57,1.27-1.27,1.27s-1.27-.57-1.27-1.27.57-1.27,1.27-1.27,1.27.57,1.27,1.27Z"/>
        <path class="cls-1" d="M663.21,341.57c0,.99-.8,1.79-1.79,1.79s-1.79-.8-1.79-1.79.8-1.79,1.79-1.79,1.79.8,1.79,1.79Z"/>
      </g>
    </g>
  </g>
</svg>